<?xml version="1.0" encoding="utf-8"?>
<!-- Generator: Adobe Illustrator 27.8.1, SVG Export Plug-In . SVG Version: 6.00 Build 0)  -->
<svg version="1.1" id="Layer_1" xmlns="http://www.w3.org/2000/svg" xmlns:xlink="http://www.w3.org/1999/xlink" x="0px" y="0px"
	 viewBox="0 0 43.2 43.2" style="enable-background:new 0 0 43.2 43.2;" xml:space="preserve">
<style type="text/css">
	.st0{fill:#0F3C60;}
	.st1{fill-rule:evenodd;clip-rule:evenodd;fill:#0F3C60;}
</style>
<g>
	<path class="st0" d="M3.8,39.4l2.6-9.5c-1.4-2.6-2.2-5.5-2.2-8.5c0-9.7,7.9-17.6,17.6-17.6c9.7,0,17.6,7.9,17.6,17.6
		c0,9.7-7.9,17.6-17.6,17.6c-2.9,0-5.8-0.7-8.4-2.1L3.8,39.4z M13.9,33.3l0.6,0.4c2.2,1.3,4.7,2,7.3,2c7.9,0,14.3-6.4,14.3-14.3
		c0-7.9-6.4-14.3-14.3-14.3c-7.9,0-14.3,6.4-14.3,14.3c0,2.6,0.7,5.2,2.1,7.4l0.4,0.6l-1.4,5.3L13.9,33.3z"/>
	<path class="st1" d="M28.3,23.8c-0.7-0.4-1.7-0.9-2.5-0.6c-0.7,0.3-1.1,1.3-1.5,1.8c-0.2,0.3-0.5,0.3-0.8,0.2
		c-2.5-1-4.3-2.6-5.7-4.9c-0.2-0.4-0.2-0.6,0.1-1c0.4-0.5,0.9-1,1-1.7c0.1-0.6-0.2-1.4-0.5-2C18.1,15,17.7,14,17,13.5
		c-0.7-0.4-1.6-0.2-2.2,0.3c-1,0.9-1.6,2.2-1.5,3.5c0,0.4,0.1,0.8,0.1,1.1c0.2,0.9,0.6,1.7,1.1,2.5c0.3,0.6,0.7,1.2,1.1,1.7
		c1.3,1.8,2.9,3.3,4.8,4.5c0.9,0.6,2,1.1,3,1.4c1.2,0.4,2.2,0.8,3.5,0.6c1.3-0.3,2.7-1.1,3.2-2.4c0.2-0.4,0.2-0.8,0.1-1.2
		C30.1,24.7,29,24.2,28.3,23.8z"/>
</g>
</svg>
