<svg width="24" height="25" viewBox="0 0 24 25" fill="none" xmlns="http://www.w3.org/2000/svg">
<path fill-rule="evenodd" clip-rule="evenodd" d="M11.9831 0.891792L12.1203 0.89205C12.7911 0.894176 13.4437 0.917991 14.1037 1.04681L14.2309 1.06964C16.4559 1.47225 18.4684 2.52431 20.1307 4.04243C20.2132 4.11658 20.2965 4.18667 20.3834 4.2554C20.5203 4.37407 20.6336 4.49966 20.7506 4.63746C20.8458 4.74762 20.945 4.85331 21.0446 4.95942L21.0619 4.97784C22.4735 6.53251 23.3835 8.51944 23.8055 10.5644L23.8264 10.6651C23.9661 11.3972 23.9956 12.1289 23.9927 12.8721L23.9924 13.0093C23.9903 13.68 23.9665 14.3327 23.8376 14.9926L23.8148 15.1198C23.4122 17.3448 22.3602 19.3574 20.842 21.0197C20.7679 21.1021 20.6978 21.1854 20.6291 21.2723C20.5104 21.4093 20.3848 21.5225 20.247 21.6396C20.1368 21.7348 20.0311 21.834 19.925 21.9336L19.9066 21.9509C18.3519 23.3625 16.365 24.2725 14.3201 24.6944L14.2193 24.7153C13.4169 24.8685 12.6177 24.881 11.8035 24.8806L11.4398 24.8816C11.1468 24.8823 10.8538 24.8826 10.5608 24.8826C10.3227 24.8827 10.0845 24.8829 9.84633 24.8832C9.16953 24.884 8.49273 24.8844 7.81592 24.8844L7.70583 24.8843L7.59561 24.8843C7.0046 24.8843 6.41358 24.8852 5.82257 24.8865C5.21418 24.8879 4.6058 24.8885 3.99741 24.8884C3.65644 24.8884 3.31547 24.8886 2.9745 24.8897C2.65437 24.8906 2.33425 24.8906 2.01412 24.8899C1.8967 24.8898 1.77928 24.89 1.66187 24.8906C1.50157 24.8913 1.34131 24.8909 1.18101 24.8901L1.04039 24.8916C0.716778 24.8884 0.448455 24.8281 0.212141 24.5948L0.160773 24.5131L0.106846 24.431C0.028453 24.286 0.0115591 24.1661 0.0113038 24.0046L0.010759 23.8754L0.0108818 23.7332L0.0104605 23.5822C0.010053 23.4144 0.00998328 23.2466 0.00991353 23.0789L0.00920945 22.7189C0.00859423 22.392 0.00829135 22.0651 0.00808548 21.7383L0.00754778 21.1248C0.00697676 20.5577 0.00649492 19.9906 0.0063367 19.4235L0.00630528 19.3135L0.00627457 19.2032L0.00621174 18.9819L0.00618032 18.871C0.00599623 18.2804 0.00518147 17.6898 0.00408877 17.0993C0.00297382 16.4917 0.00239574 15.8841 0.00234142 15.2765C0.00229876 14.9359 0.00203645 14.5953 0.00118032 14.2547C0.000375634 13.9334 0.000311398 13.6122 0.000719023 13.2909C0.000754754 13.1738 0.000556149 13.0566 8.92031e-05 12.9395C-0.0113959 9.87578 1.08641 7.01714 3.15347 4.75373C3.22761 4.67128 3.29771 4.58797 3.36644 4.50109C3.4851 4.36417 3.6107 4.25089 3.7485 4.13383C3.85864 4.03864 3.96431 3.93945 4.07039 3.83987L4.08888 3.82252C5.64355 2.41093 7.63048 1.50095 9.6754 1.07898L9.77618 1.05808C10.5082 0.918367 11.2399 0.888876 11.9831 0.891792ZM6.1012 4.69706L5.95495 4.80272C3.73973 6.44784 2.37396 8.89556 1.97127 11.6085C1.88447 12.3763 1.8826 13.1492 1.88406 13.9209L1.88404 14.2201C1.88403 14.4876 1.8843 14.7552 1.88463 15.0228C1.8849 15.2755 1.88494 15.5283 1.88499 15.781L1.88501 15.8652C1.88515 16.3955 1.88553 16.9259 1.886 17.4562C1.88653 18.0606 1.88679 18.6649 1.88702 19.2693C1.88751 20.5112 1.88833 21.7532 1.88938 22.9951C3.19118 22.9962 4.49298 22.997 5.79479 22.9975C6.39932 22.9977 7.00385 22.9981 7.60838 22.9986C8.13565 22.9991 8.66293 22.9994 9.1902 22.9995C9.46905 22.9995 9.74791 22.9997 10.0268 23C10.29 23.0004 10.5531 23.0004 10.8163 23.0004L11.104 23.0007C11.9128 23.0021 12.727 23.0001 13.5275 22.8722L13.6812 22.8478C15.2067 22.5898 16.6486 21.9948 17.8943 21.0764L18.0405 20.9707C20.2462 19.3327 21.6115 16.8984 22.0178 14.1976C22.0721 13.7717 22.0779 13.3478 22.0769 12.9189L22.0767 12.7947C22.0699 10.7039 21.4321 8.67845 20.1874 6.99016L20.0817 6.84391C18.4437 4.63822 16.0094 3.27295 13.3086 2.86663C12.8827 2.81237 12.4588 2.80653 12.0299 2.80759L11.9057 2.80771C9.81494 2.81458 7.78949 3.45237 6.1012 4.69706ZM13.3549 7.6453L13.5075 7.69666C14.2716 7.98528 14.8545 8.48866 15.1954 9.23149C15.4561 9.94675 15.3743 10.7222 15.0626 11.4028C14.6842 12.1536 14.0728 12.7404 13.4238 13.2605C13.0054 13.6009 12.7181 13.9768 12.6529 14.5246C12.6458 14.6433 12.6422 14.7027 12.6394 14.7621C12.6366 14.8215 12.6345 14.8809 12.6303 14.9996L12.6303 14.9997C12.6197 15.2782 12.5572 15.4984 12.3692 15.7092C11.9981 15.9223 11.567 15.9101 11.1554 15.835C10.92 15.7254 10.8259 15.6082 10.7342 15.367C10.5747 14.5672 10.7105 13.6293 11.1486 12.9366C11.4313 12.5336 11.7491 12.2389 12.1388 11.9428C12.5806 11.6061 12.9861 11.2788 13.1677 10.734C13.1973 10.3747 13.2141 10.0842 12.9805 9.79801C12.596 9.44621 12.171 9.35915 11.6583 9.36695C11.2481 9.39846 10.884 9.4971 10.5938 9.79801C10.4878 9.92583 10.3869 10.0573 10.2896 10.1919C10.1455 10.3904 10.0322 10.5156 9.79823 10.5936C9.51648 10.6225 9.24765 10.6042 9.00266 10.4532C8.79319 10.2587 8.64014 10.0897 8.61713 9.79618C8.6097 9.4373 8.62364 9.16876 8.81547 8.86204L8.89481 8.73518C9.36017 8.0475 10.071 7.67046 10.8746 7.5049C11.6636 7.35633 12.5936 7.38469 13.3549 7.6453ZM12.8662 17.7926C12.7512 17.4764 12.4887 17.2164 12.2025 17.0517C11.7831 16.8612 11.3196 16.912 10.9214 17.1277C10.5503 17.4215 10.3982 17.7794 10.3393 18.2421C10.3868 18.6286 10.5232 18.9974 10.8278 19.2512C11.179 19.5059 11.5271 19.5313 11.9509 19.4852C12.2734 19.4195 12.5379 19.1728 12.7286 18.9148C12.9319 18.5657 12.9461 18.1846 12.8662 17.7926Z" fill="#4F4F56"/>
</svg>
