<svg width="32" height="37" viewBox="0 0 32 37" fill="none" xmlns="http://www.w3.org/2000/svg">
<path d="M25.8501 19.534C25.8497 19.5271 25.8459 19.6694 25.8483 19.8071C25.8511 19.9717 25.8616 20.1977 25.8917 20.4711C25.952 21.0172 26.0913 21.7555 26.4077 22.5715C27.0128 24.1321 28.2587 25.9559 30.7813 27.257C30.245 28.7199 29.2303 30.8415 27.9162 32.6591C27.1952 33.6564 26.3969 34.5441 25.5541 35.1819C24.7118 35.8193 23.8544 36.1854 23.002 36.1986C21.983 36.1978 21.1695 35.8867 20.235 35.5294L20.172 35.5053C19.2172 35.1404 18.1545 34.7461 16.7532 34.7461C15.3183 34.7461 14.2133 35.1242 13.2435 35.4858C13.1687 35.5137 13.0951 35.5413 13.0224 35.5686C12.1376 35.9004 11.3957 36.1787 10.5374 36.1987L10.5341 36.1988C9.70794 36.2235 8.84382 35.8595 7.9679 35.1824C7.09478 34.5075 6.25213 33.5533 5.48322 32.4822C3.94519 30.3398 2.75893 27.8104 2.24828 26.358C1.48019 24.1384 1.0997 21.9935 1.0997 19.9255C1.0997 12.9949 5.72508 9.66997 10.0197 9.60215C11.0275 9.60306 12.2053 9.9718 13.3441 10.3742C13.5031 10.4303 13.662 10.4874 13.8192 10.5438C14.2096 10.684 14.5894 10.8203 14.9321 10.9295C15.404 11.0799 15.876 11.2033 16.2685 11.2033C16.6568 11.2033 17.1519 11.0523 17.6462 10.8814C17.8837 10.7993 18.14 10.7053 18.4063 10.6076L18.4782 10.5813C18.7721 10.4735 19.08 10.3612 19.4005 10.2508C20.6938 9.80561 22.1308 9.41669 23.4734 9.52187L23.4747 9.52198C26.2118 9.72891 28.2856 10.732 29.7185 12.5131C28.516 13.3125 27.5804 14.2476 26.9298 15.3376C26.1967 16.5658 25.8416 17.9639 25.8501 19.534ZM25.8501 19.534C25.8501 19.5343 25.8501 19.535 25.8501 19.5361H26.3501L25.8501 19.5391C25.8501 19.5374 25.8501 19.5357 25.8501 19.534ZM18.5059 3.46225C19.618 2.17844 21.5093 1.11162 23.2166 0.851785C23.2503 1.89494 23.0974 3.79411 21.3391 5.86786C19.916 7.51695 18.2678 8.47305 16.5117 8.49502C16.4799 6.59056 17.24 4.88548 18.5015 3.46719L18.5016 3.46722L18.5059 3.46225Z" stroke="#193B61"/>
</svg>
