<svg width="26" height="26" viewBox="0 0 26 26" fill="none" xmlns="http://www.w3.org/2000/svg">
<path d="M25.7734 5.15974C25.683 5.05158 25.57 4.96459 25.4423 4.9049C25.3146 4.84521 25.1754 4.81429 25.0344 4.81431H5.6183L5.02975 1.5815C4.94914 1.13778 4.71536 0.736434 4.36916 0.44742C4.02296 0.158407 3.5863 6.51791e-05 3.13532 0H0.962863C0.707496 0 0.462588 0.101444 0.282016 0.282016C0.101444 0.462588 0 0.707496 0 0.962863C0 1.21823 0.101444 1.46314 0.282016 1.64371C0.462588 1.82428 0.707496 1.92573 0.962863 1.92573H3.1293L6.20565 18.8107C6.29627 19.3115 6.51757 19.7794 6.84716 20.1672C6.39226 20.592 6.06393 21.1346 5.89857 21.7347C5.7332 22.3348 5.73727 22.969 5.91033 23.5669C6.08338 24.1648 6.41865 24.7031 6.87896 25.1221C7.33928 25.5411 7.90664 25.8245 8.51815 25.9407C9.12966 26.057 9.76142 26.0016 10.3434 25.7807C10.9253 25.5598 11.4347 25.182 11.8151 24.6893C12.1955 24.1966 12.4319 23.6082 12.4983 22.9893C12.5647 22.3703 12.4583 21.7451 12.191 21.183H17.6577C17.4423 21.6339 17.3308 22.1275 17.3315 22.6273C17.3315 23.2938 17.5292 23.9454 17.8995 24.4996C18.2698 25.0538 18.7961 25.4857 19.4119 25.7408C20.0277 25.9958 20.7053 26.0626 21.359 25.9325C22.0127 25.8025 22.6132 25.4815 23.0845 25.0102C23.5558 24.5389 23.8768 23.9384 24.0068 23.2847C24.1368 22.631 24.0701 21.9534 23.815 21.3376C23.56 20.7218 23.128 20.1955 22.5738 19.8252C22.0196 19.4549 21.3681 19.2573 20.7015 19.2573H9.0473C8.82181 19.2572 8.60348 19.178 8.43038 19.0335C8.25728 18.889 8.14039 18.6884 8.10008 18.4665L7.71855 16.3687H21.6801C22.3565 16.3686 23.0115 16.1311 23.5308 15.6975C24.0501 15.264 24.4008 14.662 24.5217 13.9964L25.9853 5.94929C26.01 5.8102 26.0039 5.66737 25.9673 5.53092C25.9307 5.39447 25.8645 5.26775 25.7734 5.15974ZM10.5915 22.6273C10.5915 22.9129 10.5068 23.1922 10.3481 23.4297C10.1894 23.6672 9.96381 23.8523 9.6999 23.9616C9.43599 24.0709 9.14559 24.0995 8.86543 24.0438C8.58526 23.9881 8.32791 23.8505 8.12592 23.6485C7.92394 23.4466 7.78638 23.1892 7.73065 22.909C7.67492 22.6289 7.70353 22.3385 7.81284 22.0746C7.92216 21.8107 8.10728 21.5851 8.34479 21.4264C8.5823 21.2677 8.86154 21.183 9.14719 21.183C9.53025 21.183 9.89761 21.3351 10.1685 21.606C10.4393 21.8769 10.5915 22.2442 10.5915 22.6273ZM22.1458 22.6273C22.1458 22.9129 22.0611 23.1922 21.9024 23.4297C21.7437 23.6672 21.5182 23.8523 21.2543 23.9616C20.9903 24.0709 20.6999 24.0995 20.4198 24.0438C20.1396 23.9881 19.8823 23.8505 19.6803 23.6485C19.4783 23.4466 19.3407 23.1892 19.285 22.909C19.2293 22.6289 19.2579 22.3385 19.3672 22.0746C19.4765 21.8107 19.6616 21.5851 19.8991 21.4264C20.1367 21.2677 20.4159 21.183 20.7015 21.183C21.0846 21.183 21.452 21.3351 21.7228 21.606C21.9937 21.8769 22.1458 22.2442 22.1458 22.6273ZM22.6273 13.6522C22.5869 13.8747 22.4694 14.0758 22.2956 14.2204C22.1217 14.365 21.9026 14.4438 21.6764 14.4429H7.36831L5.96854 6.74004H23.8802L22.6273 13.6522Z" fill="#193B61"/>
</svg>
