<svg width="22" height="25" viewBox="0 0 22 25" fill="none" xmlns="http://www.w3.org/2000/svg">
<path d="M10.76 0.891744C10.7958 0.891697 10.8316 0.89165 10.8685 0.891602C11.386 0.892064 11.877 0.911514 12.3801 1.04381C12.4355 1.05738 12.4908 1.07095 12.5479 1.08493C13.4364 1.31931 14.263 1.71383 15.0003 2.26032C15.0385 2.28794 15.0766 2.31557 15.116 2.34403C15.7367 2.81451 16.2599 3.38844 16.6847 4.0383C16.7131 4.0781 16.7416 4.11791 16.7709 4.15892C17.4235 5.10216 17.8104 6.39344 17.8166 7.53408C17.817 7.57354 17.8174 7.613 17.8178 7.65365C17.819 7.78329 17.8197 7.91293 17.8204 8.04258C17.8207 8.08712 17.8209 8.13167 17.8212 8.17756C17.8224 8.41321 17.8233 8.64886 17.824 8.88452C17.8246 9.0788 17.8259 9.27305 17.8278 9.46732C17.8301 9.70282 17.8313 9.9383 17.8316 10.1738C17.8319 10.2631 17.8327 10.3525 17.8338 10.4418C17.8443 11.329 17.8443 11.329 17.5737 11.7117C17.5476 11.7541 17.5216 11.7966 17.4947 11.8403C17.2133 12.1142 16.8904 12.2796 16.4984 12.2777C16.444 12.2776 16.3896 12.2774 16.3335 12.2772C16.2766 12.2769 16.2198 12.2765 16.1612 12.2761C16.1038 12.2759 16.0465 12.2756 15.9873 12.2754C15.8455 12.2749 15.7036 12.2741 15.5617 12.2731C15.5593 12.3059 15.5568 12.3386 15.5542 12.3724C15.4569 13.5526 15.0019 14.6999 14.1581 15.5484C14.172 15.5887 14.1859 15.6291 14.2003 15.6707C14.2323 15.7693 14.2616 15.8688 14.2868 15.9693C14.4082 16.436 14.5852 16.9466 15.0192 17.2066C15.5665 17.4732 16.1669 17.6215 16.7535 17.7755C18.3962 18.2131 19.75 19.3503 20.6061 20.8018C21.1938 21.8276 21.5498 22.9561 21.5683 24.1429C21.57 24.1861 21.5718 24.2293 21.5736 24.2738C21.5741 24.3157 21.5747 24.3576 21.5752 24.4008C21.5761 24.4383 21.5771 24.4759 21.578 24.5146C21.5363 24.6838 21.4506 24.7505 21.3168 24.8593C21.188 24.8824 21.0882 24.8909 20.9598 24.8888C20.9241 24.8891 20.8883 24.8895 20.8515 24.8898C20.7313 24.8907 20.6111 24.8899 20.4909 24.889C20.404 24.8893 20.3171 24.8897 20.2302 24.8902C19.9912 24.8911 19.7521 24.8906 19.513 24.8899C19.2553 24.8894 18.9976 24.8902 18.7399 24.8909C18.2349 24.8919 17.7299 24.8917 17.2249 24.891C16.8146 24.8905 16.4043 24.8904 15.994 24.8906C15.9357 24.8907 15.8773 24.8907 15.8172 24.8908C15.6987 24.8908 15.5802 24.8909 15.4617 24.891C14.3816 24.8916 13.3014 24.891 12.2212 24.8897C11.2349 24.8886 10.2486 24.8887 9.26225 24.8898C8.15442 24.8911 7.0466 24.8916 5.93877 24.8909C5.8207 24.8908 5.70263 24.8907 5.58456 24.8906C5.52647 24.8906 5.46837 24.8906 5.40851 24.8905C4.99857 24.8903 4.58862 24.8907 4.17867 24.8912C3.67927 24.8919 3.17987 24.8917 2.68047 24.8905C2.42553 24.8898 2.1706 24.8896 1.91567 24.8904C1.68247 24.8911 1.44929 24.8907 1.2161 24.8895C1.13156 24.8892 1.04702 24.8893 0.962483 24.8899C0.84787 24.8906 0.733352 24.8899 0.618744 24.8888C0.585646 24.8893 0.552548 24.8899 0.518447 24.8904C0.338046 24.887 0.265999 24.8628 0.124305 24.747C0.0240453 24.6206 -0.00144799 24.5747 6.23481e-05 24.4172C7.3657e-05 24.378 8.4966e-05 24.3387 9.66173e-05 24.2983C0.00153284 24.2567 0.00296906 24.215 0.0044488 24.1721C0.00531205 24.1286 0.00617529 24.0851 0.00706469 24.0403C0.0622534 22.2554 0.871599 20.6619 2.08655 19.385C2.1317 19.3354 2.1317 19.3354 2.17776 19.2847C3.00641 18.4021 4.13569 17.9739 5.25942 17.6071C5.36573 17.5717 5.47201 17.5363 5.57826 17.5009C5.77157 17.4365 5.965 17.3724 6.15861 17.309C6.21973 17.2884 6.21973 17.2884 6.28209 17.2675C6.39113 17.2328 6.39113 17.2328 6.55109 17.1962C6.72705 17.1131 6.78556 16.9772 6.86633 16.8091C6.88277 16.7764 6.89921 16.7438 6.91615 16.7101C6.95056 16.6412 6.98451 16.5721 7.01803 16.5027C7.06953 16.3965 7.12278 16.2913 7.1763 16.186C7.20955 16.1189 7.2427 16.0517 7.27573 15.9844C7.29171 15.953 7.30769 15.9215 7.32415 15.889C7.40825 15.7184 7.40825 15.7184 7.38963 15.5357C7.26685 15.3773 7.14076 15.2221 7.01313 15.0675C6.85588 14.8713 6.75932 14.6895 6.66309 14.4576C6.5948 14.3041 6.5948 14.3041 6.48471 14.1915C6.29083 14.1458 6.11912 14.1443 5.92141 14.1485C5.65784 14.1431 5.48424 14.0536 5.2682 13.9107C5.22574 13.8847 5.18327 13.8586 5.13953 13.8318C4.94271 13.6295 4.7114 13.3145 4.70455 13.0223C4.70644 12.9702 4.70644 12.9702 4.70837 12.917C4.73359 12.4874 4.73359 12.4874 4.56271 12.1185C4.44146 12.0519 4.44146 12.0519 4.31268 12.0004C4.04594 11.8792 3.91104 11.598 3.80135 11.3378C3.74826 11.1736 3.75144 11.0125 3.75279 10.8413C3.75254 10.8023 3.7523 10.7634 3.75204 10.7233C3.75143 10.5952 3.75184 10.4672 3.75231 10.3391C3.75222 10.2491 3.75208 10.1592 3.7519 10.0693C3.7517 9.8807 3.752 9.69216 3.75265 9.50362C3.75345 9.26415 3.753 9.02472 3.75215 8.78526C3.75164 8.59931 3.75181 8.41336 3.75217 8.22741C3.75226 8.13927 3.75215 8.05112 3.75182 7.96298C3.74614 6.02271 4.49269 4.27147 5.82966 2.86857C5.94941 2.75268 6.07469 2.64615 6.20397 2.54105C6.24716 2.50547 6.29034 2.46988 6.33484 2.43322C7.59991 1.41246 9.13864 0.893216 10.76 0.891744ZM9.15167 2.07316C9.11755 2.08294 9.08343 2.09272 9.04827 2.10279C8.10061 2.38506 7.29408 2.89318 6.57828 3.57041C6.53974 3.60593 6.5012 3.64146 6.46149 3.67806C5.75866 4.348 5.26997 5.21913 4.98746 6.1438C4.96967 6.20164 4.95188 6.25948 4.93355 6.31907C4.82386 6.70045 4.77133 7.05754 4.75352 7.45388C5.04689 7.45388 5.34025 7.45388 5.64251 7.45388C5.65312 7.32361 5.66374 7.19333 5.67467 7.0591C5.79062 5.88572 6.32393 4.71876 7.23333 3.94472C8.09063 3.25952 9.07419 2.81952 10.1834 2.81064C10.2289 2.81026 10.2744 2.80988 10.3212 2.80949C10.4176 2.80885 10.5139 2.80834 10.6102 2.80797C10.7072 2.80744 10.8043 2.80649 10.9013 2.8051C12.2916 2.7852 13.5107 3.16293 14.5324 4.13187C15.4587 5.03494 15.8263 6.19157 15.9361 7.45388C16.2294 7.45388 16.5228 7.45388 16.825 7.45388C16.765 5.91291 15.9802 4.48323 14.8804 3.43461C14.1181 2.73378 13.2294 2.30694 12.2397 2.02637C12.1805 2.00943 12.1213 1.99248 12.0603 1.97502C11.1305 1.7582 10.0664 1.80941 9.15167 2.07316ZM7.54623 4.98577C7.04604 5.56229 6.72655 6.27704 6.62507 7.03278C6.65891 6.99834 6.69275 6.96391 6.72761 6.92842C7.5451 6.1223 8.62452 5.59946 9.78559 5.59345C10.155 5.60991 10.3127 5.78494 10.5553 6.05022C10.6584 6.1412 10.7656 6.22615 10.8741 6.31048C10.916 6.3432 10.916 6.3432 10.9588 6.37657C11.2323 6.58686 11.5178 6.77011 11.8186 6.93921C11.8455 6.95444 11.8723 6.96968 11.8999 6.98538C12.7715 7.4731 13.9391 7.92539 14.9535 7.87498C14.9975 6.67119 14.6759 5.67934 13.8481 4.78107C12.9486 3.92203 11.7889 3.68698 10.586 3.70383C9.4033 3.73389 8.37572 4.12188 7.54623 4.98577ZM7.06965 8.05262C7.02162 8.11796 6.97407 8.18366 6.92704 8.24972C6.85902 8.34287 6.85902 8.34287 6.78926 8.42534C6.60691 8.64797 6.59734 8.81304 6.62215 9.09442C6.62656 9.15943 6.62656 9.15943 6.63106 9.22575C6.64276 9.38396 6.65712 9.54179 6.67186 9.69975C6.67782 9.7659 6.68376 9.83204 6.6897 9.89819C6.76284 10.701 6.85345 11.5005 6.98184 12.2965C6.99147 12.3565 7.00111 12.4164 7.01104 12.4781C7.05346 12.7307 7.10089 12.9669 7.18654 13.2089C7.39799 13.2239 7.6093 13.233 7.82111 13.2411C7.91073 13.2476 7.91073 13.2476 8.00215 13.2542C8.18035 13.2592 8.32473 13.2572 8.49663 13.2089C8.61436 13.0876 8.68233 12.9741 8.75512 12.822C8.89935 12.5551 9.19912 12.4132 9.47919 12.3199C9.60577 12.3095 9.72745 12.3035 9.85405 12.3026C9.89 12.3021 9.92595 12.3017 9.96298 12.3013C10.0389 12.3006 10.1149 12.3002 10.1908 12.3C10.3056 12.2995 10.4203 12.2972 10.5351 12.2948C11.0261 12.2897 11.372 12.3405 11.7631 12.6621C12.1005 13.0767 12.1859 13.4311 12.157 13.9588C12.1194 14.2802 11.9238 14.5531 11.6783 14.7529C11.2738 15.0318 10.9434 15.0479 10.4642 15.0526C10.3873 15.0536 10.3104 15.0552 10.2335 15.0574C9.73998 15.0714 9.33419 15.057 8.91773 14.7529C8.77151 14.5999 8.66408 14.4492 8.58801 14.2511C8.5091 14.137 8.5091 14.137 8.40215 14.1261C8.28174 14.1216 8.16371 14.1243 8.04336 14.1301C8.00159 14.1311 7.95983 14.1322 7.91679 14.1333C7.81366 14.136 7.71069 14.1399 7.60764 14.1447C8.15562 15.0209 8.94083 15.6688 9.95293 15.9314C10.9613 16.1285 11.9285 15.9525 12.8012 15.408C13.8199 14.6821 14.3746 13.6292 14.5792 12.4135C14.7677 11.2476 14.9535 10.0408 14.9535 8.85755C14.9173 8.85242 14.8812 8.8473 14.8439 8.84201C13.0303 8.57852 11.1069 8.01945 9.79867 6.64531C9.71345 6.54992 9.71345 6.54992 9.55815 6.5415C8.51318 6.60354 7.6752 7.24251 7.06965 8.05262ZM4.70673 8.38966C4.70325 8.73683 4.70071 9.08398 4.69902 9.43116C4.69831 9.5492 4.69736 9.66724 4.69614 9.78527C4.69443 9.9552 4.69364 10.1251 4.69302 10.295C4.6923 10.3476 4.69157 10.4001 4.69083 10.4543C4.69077 10.7378 4.70356 10.9493 4.8471 11.197C5.06851 11.353 5.27366 11.3439 5.53796 11.3405C5.58683 11.3401 5.58683 11.3401 5.63668 11.3398C5.71661 11.3392 5.79653 11.3383 5.87645 11.3374C5.87081 11.2807 5.87081 11.2807 5.86505 11.2229C5.77182 10.2793 5.69807 9.33627 5.64251 8.38966C5.3337 8.38966 5.02489 8.38966 4.70673 8.38966ZM15.9361 8.38966C15.927 8.52012 15.918 8.65058 15.9086 8.78499C15.7843 10.5654 15.7843 10.5654 15.7021 11.3374C16.2426 11.3783 16.2426 11.3783 16.7315 11.197C16.9013 10.9038 16.8901 10.6275 16.8855 10.295C16.8852 10.2132 16.8852 10.2132 16.8849 10.1296C16.8842 9.95611 16.8824 9.78261 16.8806 9.6091C16.8799 9.49112 16.8793 9.37314 16.8787 9.25516C16.8771 8.96665 16.8747 8.67816 16.8718 8.38966C16.563 8.38966 16.2542 8.38966 15.9361 8.38966ZM5.64251 12.2731C5.62629 12.5717 5.61992 12.811 5.78287 13.0685C5.89129 13.136 5.98726 13.1694 6.1104 13.2089C6.17171 13.0075 6.13182 12.8375 6.08993 12.6358C6.08302 12.6009 6.07611 12.566 6.069 12.5301C6.05196 12.4444 6.03444 12.3587 6.01682 12.2731C5.8933 12.2731 5.76977 12.2731 5.64251 12.2731ZM9.52598 13.3493C9.41129 13.5213 9.39384 13.6641 9.43241 13.864C9.55869 14.0288 9.6515 14.108 9.85351 14.1447C10.0064 14.156 10.1593 14.1555 10.3126 14.1564C10.3537 14.1574 10.3947 14.1583 10.437 14.1593C10.7 14.1609 10.8858 14.1336 11.1168 14.0043C11.2315 13.8323 11.2489 13.6895 11.2104 13.4896C11.0841 13.3248 10.9913 13.2456 10.7893 13.2089C10.6364 13.1976 10.4834 13.1981 10.3302 13.1972C10.2891 13.1963 10.2481 13.1953 10.2058 13.1943C9.94278 13.1927 9.75698 13.22 9.52598 13.3493ZM13.1956 16.5514C13.1614 16.5856 13.1271 16.6198 13.0918 16.655C13.0377 16.7094 13.0377 16.7094 12.9825 16.7649C12.9475 16.7997 12.9125 16.8345 12.8765 16.8703C12.6807 17.0665 12.4935 17.2671 12.3127 17.4771C12.2153 17.5881 12.1115 17.6913 12.0058 17.7942C11.8085 17.9891 11.6239 18.1912 11.4443 18.4025C11.6268 18.6209 11.8164 18.8279 12.0186 19.0281C12.0452 19.0546 12.0718 19.0812 12.0992 19.1085C12.183 19.192 12.2669 19.2754 12.3509 19.3587C12.4082 19.4158 12.4655 19.4729 12.5228 19.5301C12.6623 19.669 12.8019 19.8078 12.9416 19.9465C13.0724 19.8321 13.1345 19.7129 13.207 19.5559C13.2302 19.5058 13.2534 19.4556 13.2774 19.4039C13.3017 19.3504 13.326 19.2969 13.351 19.2418C13.3883 19.1599 13.3883 19.1599 13.4263 19.0764C13.5705 18.7572 13.7133 18.4374 13.8452 18.113C13.859 18.0803 13.8728 18.0476 13.8871 18.014C13.9922 17.746 13.9851 17.5615 13.8715 17.2978C13.805 17.1586 13.7352 17.0216 13.6639 16.8848C13.6395 16.8371 13.6152 16.7895 13.5901 16.7405C13.5303 16.6236 13.4701 16.507 13.4095 16.3906C13.3193 16.3906 13.2552 16.4919 13.1956 16.5514ZM8.07553 16.5777C7.99517 16.7261 7.91676 16.8755 7.83866 17.0251C7.81595 17.067 7.79324 17.1089 7.76985 17.1521C7.64007 17.4033 7.56868 17.5592 7.65443 17.841C7.71895 18.0268 7.79053 18.2088 7.86498 18.3908C7.88566 18.442 7.90634 18.4931 7.92765 18.5459C8.11567 19.0056 8.32367 19.4544 8.54342 19.8997C8.68007 19.9139 8.68007 19.9139 8.75465 19.8455C8.77927 19.8205 8.8039 19.7954 8.82927 19.7696C8.8567 19.7419 8.88414 19.7143 8.91241 19.6858C8.94118 19.656 8.96996 19.6263 8.99961 19.5956C9.02917 19.5655 9.05873 19.5354 9.08919 19.5045C9.26291 19.3266 9.43095 19.1454 9.5916 18.9555C9.73299 18.7944 9.88738 18.6458 10.0407 18.4961C9.83362 18.2485 9.61576 18.0169 9.38781 17.7886C9.35312 17.7537 9.31843 17.7189 9.28269 17.683C9.20992 17.61 9.1371 17.537 9.06422 17.4642C8.95226 17.3521 8.84068 17.2397 8.72911 17.1272C8.65822 17.0562 8.58731 16.9852 8.51637 16.9142C8.48293 16.8804 8.4495 16.8467 8.41505 16.8119C8.38412 16.7811 8.35318 16.7503 8.32131 16.7185C8.2941 16.6913 8.26689 16.664 8.23886 16.6359C8.17227 16.5677 8.17227 16.5677 8.07553 16.5777ZM9.94708 16.9052C10.1803 17.1875 10.4346 17.4442 10.6957 17.7006C10.8726 17.6289 10.9715 17.5213 11.0963 17.379C11.1321 17.3386 11.1679 17.2982 11.2047 17.2565C11.2886 17.1573 11.3679 17.057 11.4443 16.952C11.3911 16.9526 11.3379 16.9531 11.2831 16.9537C10.835 16.9568 10.3938 16.9454 9.94708 16.9052ZM6.38852 18.2695C6.33316 18.2874 6.33316 18.2874 6.27667 18.3056C6.237 18.3187 6.19733 18.3319 6.15645 18.3455C6.11488 18.3591 6.0733 18.3728 6.03046 18.3868C5.94216 18.4159 5.8539 18.4452 5.76569 18.4746C5.63344 18.5186 5.50092 18.5616 5.36835 18.6046C4.39159 18.9262 3.54885 19.3511 2.80625 20.0714C2.75454 20.1212 2.70164 20.1698 2.64839 20.2179C1.71134 21.0855 1.16221 22.4437 1.01041 23.6896C1.01041 23.7668 1.01041 23.844 1.01041 23.9236C3.94407 23.9236 6.87773 23.9236 9.90029 23.9236C9.66377 23.4879 9.66377 23.4879 9.40024 23.0726C9.37055 23.0285 9.37055 23.0285 9.34027 22.9835C9.23719 22.8309 9.1326 22.6794 9.02684 22.5287C8.09202 21.1936 7.34827 19.7364 6.76544 18.2153C6.60956 18.2153 6.53006 18.2234 6.38852 18.2695ZM14.8131 18.2153C14.7995 18.2496 14.786 18.2838 14.772 18.3191C14.1677 19.8336 13.4715 21.3406 12.473 22.6409C12.2818 22.8921 12.1159 23.1579 11.9502 23.4264C11.9232 23.4702 11.8962 23.514 11.8683 23.5591C11.7425 23.7306 11.7425 23.7306 11.6783 23.9236C14.6119 23.9236 17.5456 23.9236 20.5682 23.9236C20.5262 23.4183 20.5262 23.4183 20.4219 22.9322C20.4117 22.8946 20.4015 22.8569 20.391 22.8181C19.9682 21.3182 19.0168 19.9714 17.6457 19.2004C17.1795 18.9573 16.6992 18.7775 16.2009 18.6116C16.072 18.5687 15.9434 18.5248 15.8148 18.4808C15.7319 18.4527 15.6489 18.4248 15.566 18.3968C15.5091 18.3774 15.5091 18.3774 15.451 18.3577C15.2378 18.2871 15.0365 18.2397 14.8131 18.2153ZM10.5753 19.3076C10.5264 19.3565 10.4779 19.4058 10.4296 19.4552C10.3914 19.4939 10.3914 19.4939 10.3524 19.5334C10.1929 19.6959 10.041 19.863 9.89353 20.0366C9.7393 20.209 9.57217 20.369 9.40682 20.5306C9.2159 20.7052 9.2159 20.7052 9.15058 20.9399C9.22173 21.1324 9.33371 21.2901 9.44995 21.4584C9.47512 21.4955 9.5003 21.5326 9.52623 21.5708C9.6482 21.7503 9.77163 21.9287 9.89518 22.107C9.93783 22.1686 9.98047 22.2302 10.0231 22.2918C10.0439 22.3217 10.0646 22.3517 10.086 22.3825C10.3166 22.7172 10.5301 23.0624 10.7425 23.4089C10.9068 23.3541 10.9163 23.3276 10.998 23.1824C11.0198 23.1447 11.0415 23.1069 11.0639 23.068C11.0872 23.0271 11.1104 22.9861 11.1344 22.9439C11.3278 22.6115 11.5314 22.294 11.7602 21.9848C11.9403 21.7402 12.118 21.4957 12.2807 21.2391C12.3254 21.169 12.3254 21.169 12.371 21.0976C12.4358 20.9842 12.4358 20.9842 12.4164 20.8851C12.3727 20.7689 12.318 20.7091 12.2302 20.6214C12.1987 20.5896 12.1672 20.5578 12.1347 20.525C12.1004 20.4911 12.0661 20.4573 12.0308 20.4224C11.9958 20.3874 11.9608 20.3524 11.9247 20.3162C11.8507 20.2423 11.7764 20.1685 11.702 20.0949C11.5878 19.9818 11.4742 19.8681 11.3607 19.7542C11.2888 19.6826 11.2168 19.6109 11.1448 19.5393C11.1106 19.5051 11.0764 19.4709 11.0412 19.4356C11.0095 19.4044 10.9778 19.3731 10.9452 19.341C10.9173 19.3133 10.8894 19.2856 10.8606 19.257C10.7297 19.1485 10.6985 19.1953 10.5753 19.3076Z" fill="#4F4F56"/>
</svg>
