<svg width="27" height="24" viewBox="0 0 27 24" fill="none" xmlns="http://www.w3.org/2000/svg">
<path fill-rule="evenodd" clip-rule="evenodd" d="M13.579 0L13.4379 0.000124975C11.0573 0.0020143 8.59186 0.873747 6.92532 2.64103L6.81382 2.7659C5.61413 4.08579 4.702 5.63927 4.39821 7.41748L4.36894 7.59455C3.862 7.57066 3.40404 7.61112 2.91024 7.72873L2.68426 7.78555C2.02141 7.93914 1.34271 8.11686 0.831495 8.5916C0.322769 9.15726 0.00237993 9.78606 0 10.5566L0.00324282 10.7383C0.00386651 10.9356 0.00484001 11.1329 0.00746586 11.3302C0.00927661 11.4662 0.0105239 11.6023 0.0112263 11.7383C0.0117074 11.8721 0.0123631 12.006 0.0132082 12.1398L0.0147032 12.3313L0.0160714 12.5155L0.0184487 12.6869C0.024258 13.1653 0.224015 13.5571 0.454406 13.969C0.891943 14.6851 1.67127 14.9808 2.4501 15.1748L2.67662 15.2272L2.73227 15.2402C3.10975 15.3288 3.48731 15.4173 3.87399 15.4538C4.40052 15.4682 4.79136 15.3932 5.19027 15.0428C5.76822 14.4538 5.79776 13.8582 5.80014 13.0699C5.79984 12.8954 5.79959 12.721 5.80042 12.5465C5.80283 12.1709 5.80428 11.7954 5.80498 11.4198L5.80503 11.3905C5.80576 10.9586 5.80649 10.5267 5.80903 10.0947C5.81017 9.91655 5.81104 9.73839 5.81077 9.5602C5.81031 9.29024 5.81154 9.02044 5.81889 8.75057C5.90376 6.78616 6.83731 4.92684 8.25783 3.59487C9.73045 2.2534 11.6876 1.47928 13.6886 1.54871C15.5654 1.6451 17.5645 2.33692 18.8713 3.74457L18.9771 3.8661C20.3916 5.45657 21.1354 7.25178 21.1418 9.39102C21.1415 9.56478 21.1412 9.73853 21.1421 9.91229C21.1449 10.3507 21.1462 10.7891 21.147 11.2275C21.1476 11.6066 21.1484 11.9857 21.1507 12.3648C21.1518 12.5431 21.1527 12.7213 21.1524 12.8996L21.1522 12.9963V12.9964V12.9964V12.9964V12.9964C21.1514 13.3149 21.1505 13.6339 21.1775 13.9512C21.2838 14.5147 21.5267 14.869 21.9855 15.2148C22.2169 15.3521 22.3652 15.4401 22.5256 15.4819C22.8117 15.5565 23.1361 15.484 24.0392 15.2824L24.2756 15.2272C24.9351 15.0748 25.6127 14.8931 26.1208 14.4211C26.6295 13.8555 26.9499 13.2267 26.9523 12.4561L26.949 12.2744C26.9484 12.0771 26.9474 11.8798 26.9448 11.6825C26.943 11.5465 26.9417 11.4105 26.941 11.2744C26.9406 11.1406 26.9399 11.0067 26.9391 10.8729L26.9376 10.6815L26.9362 10.4972L26.9338 10.3258C26.928 9.84746 26.7282 9.45567 26.4979 9.04372C26.0589 8.32519 25.2768 8.02954 24.4947 7.83808L24.268 7.78555C23.7454 7.65413 23.2662 7.57366 22.7258 7.58783L22.5833 7.59455C22.4562 6.61211 22.0914 5.6419 21.6111 4.77854L21.5442 4.66069C21.4737 4.53591 21.4024 4.41178 21.3295 4.28836C20.1089 2.28088 18.0177 0.791966 15.7426 0.229572L15.6154 0.198772C14.9388 0.0294443 14.2741 0.000978964 13.579 0ZM2.82656 9.33748L3.02425 9.29069L3.13398 9.26282L3.13399 9.26281C3.46262 9.17889 3.77956 9.09795 4.12445 9.1226C4.19383 9.17911 4.22927 9.20797 4.24689 9.24524C4.26528 9.28414 4.26427 9.33221 4.26222 9.43043L4.26251 9.67198C4.26319 9.81189 4.26366 9.95177 4.26335 10.0917C4.26307 10.1919 4.26297 10.2921 4.26305 10.3923C4.26337 10.6008 4.26351 10.8093 4.26307 11.0177C4.26233 11.2895 4.26193 11.5612 4.26263 11.8329C4.2632 12.0446 4.26346 12.2563 4.26328 12.468L4.26293 12.7708C4.26334 12.9164 4.2637 13.062 4.26316 13.2076L4.26251 13.3407C4.26246 13.3811 4.26345 13.4181 4.26437 13.4528C4.26911 13.6302 4.2721 13.7425 4.12445 13.8901C3.80191 13.8743 3.63979 13.8664 3.48063 13.8404C3.3198 13.814 3.162 13.7692 2.84475 13.6791L2.84474 13.6791L2.84468 13.6791L2.84467 13.6791L2.71864 13.6456C2.4206 13.5668 2.15836 13.4904 1.91474 13.2963C1.48196 12.8494 1.48078 12.3304 1.47949 11.7322L1.48092 11.5064C1.48048 11.4381 1.47902 11.3679 1.47752 11.2965C1.46834 10.8575 1.45817 10.3711 1.681 9.99495C1.99328 9.59148 2.3484 9.45643 2.82656 9.33748ZM22.69 9.43054C22.6923 9.38212 22.697 9.33381 22.7056 9.24484C23.0163 9.16704 23.1813 9.1257 23.3452 9.13001C23.5308 9.13488 23.7149 9.19833 24.1076 9.33366L24.2336 9.36709C24.5317 9.44591 24.7939 9.52229 25.0375 9.71639C25.4703 10.1633 25.4715 10.6823 25.4728 11.2805L25.4713 11.5064C25.4718 11.5746 25.4732 11.6448 25.4747 11.7162C25.4839 12.1552 25.4941 12.6416 25.2713 13.0178C24.9931 13.3772 24.6536 13.5439 24.2245 13.6505L24.0655 13.6877L23.9963 13.7051C23.6167 13.801 23.2196 13.9013 22.8278 13.8901C22.7584 13.8336 22.723 13.8048 22.7054 13.7675C22.687 13.7286 22.688 13.6805 22.69 13.5823V13.5823L22.6898 13.3407C22.6891 13.2008 22.6886 13.061 22.6889 12.921C22.6892 12.8208 22.6893 12.7206 22.6892 12.6204C22.6889 12.4119 22.6888 12.2035 22.6892 11.995C22.6899 11.7232 22.6903 11.4515 22.6896 11.1798C22.6891 10.9681 22.6888 10.7564 22.689 10.5447L22.6893 10.2419C22.6889 10.0963 22.6886 9.95072 22.6891 9.80513L22.6898 9.67198C22.6881 9.54575 22.6874 9.48807 22.69 9.43054ZM15.6134 4.21139L15.4932 4.1717C14.3378 3.78803 12.9456 3.79242 11.7724 4.08766C10.1676 4.51429 8.69162 5.54378 7.83356 6.98212L7.73065 7.16668C7.03184 8.40369 6.70282 9.77327 6.85011 11.1976L6.87494 11.3841C7.04211 12.7309 7.7073 14.1838 8.70383 15.1195L8.83085 15.2348C10.2727 16.6145 11.9242 17.1844 13.907 17.1638C14.0412 17.1623 14.1754 17.1614 14.3097 17.161C14.6645 17.1605 15.0193 17.159 15.3742 17.156C15.667 17.1535 15.9597 17.1518 16.2525 17.151C16.6087 17.1501 16.9649 17.1489 17.321 17.1473L17.5243 17.1463C17.7199 17.1454 17.9154 17.1444 18.111 17.1429L18.2891 17.1414C18.7236 17.1393 18.9549 17.1284 19.2827 16.824C19.4663 16.5577 19.5717 16.2942 19.5494 15.9683C19.4722 15.543 19.2806 15.3387 18.9313 15.0896C18.8226 15.0183 18.7152 14.945 18.6104 14.8681C18.6044 14.8053 18.6013 14.7735 18.6104 14.7457C18.6198 14.7172 18.6419 14.6929 18.6868 14.6436C19.245 13.9808 19.6073 13.2487 19.8572 12.4248L19.894 12.3009C20.0553 11.7719 20.0883 11.271 20.0954 10.7208L20.0964 10.4826C20.1011 9.4696 19.9142 8.56628 19.4813 7.6499C18.6823 6.02603 17.3304 4.79956 15.6134 4.21139ZM8.403 11.2619C8.29096 9.80336 8.55798 8.40071 9.52603 7.25028C10.6775 5.97625 12.1381 5.38424 13.8398 5.43186C14.9701 5.48779 16.1957 5.96445 16.9761 6.80449L17.0823 6.92219C18.1068 7.97652 18.6002 9.2089 18.6121 10.6745C18.5512 11.9423 18.0357 13.2156 17.1205 14.104C16.8721 14.328 16.676 14.5437 16.6392 14.8891L16.6545 15.0209C16.6725 15.228 16.7393 15.3343 16.8715 15.4882L17.0212 15.6627C16.6121 15.6639 16.203 15.665 15.7939 15.6656L15.7429 15.6657C15.5505 15.666 15.3581 15.6663 15.1657 15.6669C14.9614 15.6675 14.7571 15.6681 14.5528 15.6684L14.3173 15.6686C13.9109 15.6704 13.5077 15.6698 13.1026 15.6344C11.8736 15.5131 10.5739 14.975 9.76893 14.0083L9.62544 13.829C9.00134 13.1351 8.51661 12.1976 8.403 11.2619ZM5.95811 16.6406C6.23791 16.8042 6.45207 17.0589 6.6609 17.3073L6.66098 17.3074C6.69654 17.3497 6.73195 17.3918 6.7675 17.4333C7.80869 18.6364 9.39808 19.3826 10.9701 19.5745L11.1341 19.5948C11.6418 19.6488 12.1487 19.6617 12.6565 19.6058C13.0214 19.5678 13.3845 19.5587 13.7512 19.5554L13.9482 19.55C14.6439 19.5445 15.1023 19.7452 15.6032 20.2241C16.1137 20.7745 16.2015 21.329 16.1839 22.0547C16.1509 22.6999 15.8362 23.1159 15.3709 23.5474C14.7752 24.009 14.1415 24.0383 13.415 23.9753C12.8607 23.8694 12.4298 23.4869 12.0906 23.0491C11.8141 22.6266 11.7468 22.2493 11.7571 21.7519L11.7587 21.5979C11.7602 21.4735 11.7624 21.3492 11.7647 21.2248L11.6616 21.2184C9.40835 21.0698 7.48851 20.3403 5.83586 18.7799L5.70431 18.6581C5.17764 18.1547 4.99669 17.9817 4.92637 17.7717C4.88957 17.6618 4.88308 17.5417 4.87319 17.3588C4.89545 17.0515 5.00196 16.9085 5.22464 16.7017C5.45712 16.5855 5.70605 16.5962 5.95811 16.6406ZM13.4761 21.2248C13.3033 21.4346 13.2572 21.6245 13.2665 21.8971C13.3116 22.1069 13.4268 22.219 13.5751 22.3634L13.5984 22.3861C13.7957 22.4848 13.9963 22.4836 14.2096 22.4472C14.3945 22.3411 14.5407 22.2128 14.6374 22.0194C14.6563 21.8602 14.6656 21.7819 14.6569 21.7057C14.6484 21.632 14.6232 21.5602 14.5735 21.4189C14.4646 21.2866 14.3639 21.1797 14.2096 21.1025C14.0112 21.0869 13.9138 21.0792 13.8206 21.0956C13.7308 21.1114 13.6449 21.1496 13.4761 21.2248ZM16.6545 10.2228C16.5562 10.0263 16.4177 9.89713 16.2266 9.79493C15.9788 9.76001 15.7208 9.74222 15.4932 9.85605C15.3097 10.0264 15.201 10.1275 15.1656 10.3787C15.1637 10.706 15.1689 10.8703 15.3976 11.1167C15.482 11.1864 15.5337 11.2293 15.593 11.2545C15.6873 11.2946 15.8005 11.2901 16.0939 11.2786C16.3246 11.2495 16.4439 11.1308 16.5905 10.9536C16.7122 10.7262 16.686 10.4729 16.6545 10.2228ZM13.7817 9.79493C13.9728 9.89713 14.1114 10.0263 14.2096 10.2228C14.2411 10.4729 14.2673 10.7262 14.1456 10.9536C13.999 11.1308 13.8797 11.2495 13.649 11.2786H13.649C13.3556 11.2901 13.2424 11.2946 13.1481 11.2545C13.0888 11.2293 13.0371 11.1864 12.9528 11.1167C12.724 10.8703 12.7188 10.706 12.7207 10.3787C12.7561 10.1275 12.8649 10.0264 13.0483 9.85605C13.2759 9.74222 13.5339 9.76001 13.7817 9.79493ZM11.7647 10.2228C11.6665 10.0263 11.5279 9.89713 11.3369 9.79493C11.089 9.76001 10.831 9.74222 10.6034 9.85605C10.42 10.0264 10.3112 10.1275 10.2758 10.3787C10.2739 10.706 10.2791 10.8703 10.5079 11.1167C10.5922 11.1864 10.644 11.2293 10.7032 11.2545C10.7975 11.2946 10.9107 11.2901 11.2041 11.2786C11.4349 11.2495 11.5541 11.1308 11.7007 10.9536C11.8224 10.7262 11.7962 10.4729 11.7647 10.2228Z" fill="#4F4F56"/>
</svg>
