<svg width="24" height="24" viewBox="0 0 24 24" fill="none" xmlns="http://www.w3.org/2000/svg">
<path fill-rule="evenodd" clip-rule="evenodd" d="M9.15576 0.000105416L9.27796 0.000411169C9.86915 0.0027846 10.4417 0.0207133 11.0197 0.155188L11.1466 0.183375C12.6668 0.527109 14.0423 1.20848 15.2083 2.24503C15.2793 2.30813 15.3511 2.37037 15.4229 2.4326C17.0832 3.89094 18.1086 6.06894 18.3232 8.25461C18.3316 8.42725 18.3339 8.59709 18.3232 8.7696L18.4593 8.78258C18.6846 8.8151 18.886 8.89737 19.0957 8.9832L19.2207 9.03418C20.1382 9.41522 20.937 9.94709 21.6472 10.6423L21.7796 10.7676C23.0947 12.0367 23.9659 13.9396 24.0038 15.773C24.0057 15.9189 24.006 16.0647 24.0057 16.2106L24.0056 16.3261C24.004 16.9455 23.957 17.5315 23.8008 18.1331L23.775 18.2388C23.6308 18.8225 23.42 19.4316 23.0841 19.9337C22.927 20.2625 23.0644 20.6832 23.1844 21.0507L23.1844 21.0508C23.2122 21.136 23.2391 21.2183 23.2612 21.296L23.3239 21.5203C23.3787 21.7159 23.4338 21.9114 23.489 22.1068C23.5777 22.4208 23.6658 22.7349 23.7538 23.0491C23.7846 23.1587 23.8156 23.2683 23.8466 23.3779L23.9029 23.5783L23.9529 23.7552C23.9881 23.8916 23.9881 23.8916 23.9881 23.9853C23.4864 23.8766 22.992 23.7449 22.498 23.6056L22.4043 23.5792C22.1129 23.4971 21.8216 23.4146 21.5304 23.3319C21.3696 23.2862 21.2087 23.2407 21.0478 23.1955C20.9577 23.1701 20.8678 23.1444 20.7779 23.1186L20.6125 23.0722L20.4676 23.0311C20.1838 22.9684 20.0282 23.0285 19.7833 23.1718C18.7118 23.767 17.4977 24.0058 16.2808 23.9999L16.1679 23.9996C14.17 23.9909 12.2952 23.2495 10.8569 21.8537C10.7891 21.7882 10.7201 21.7238 10.6512 21.6594C9.98087 21.0186 9.48796 20.2226 9.10602 19.3825L9.0536 19.2674C8.86084 18.8303 8.80023 18.6929 8.78118 18.5499C8.77244 18.4844 8.77244 18.4177 8.77244 18.3204L8.67933 18.323C8.34613 18.3284 8.02999 18.2984 7.70149 18.2443L7.54746 18.2189C6.56962 18.0496 5.55685 17.7495 4.72493 17.192C4.46137 17.099 4.14709 17.1921 3.87427 17.273L3.87411 17.273C3.83657 17.2842 3.79982 17.2951 3.76409 17.3052L3.64397 17.3384C3.51613 17.3739 3.38842 17.4097 3.26071 17.4456L3.25974 17.4459L3.25548 17.4471L2.984 17.5225C2.74683 17.5883 2.50976 17.6545 2.27272 17.7208C1.8922 17.8272 1.51154 17.933 1.13086 18.0388C0.997881 18.0758 0.864952 18.113 0.732028 18.1502L0.489059 18.218L0.376671 18.2496L0.376614 18.2496C0.194698 18.3001 0.142673 18.3146 0.0898405 18.3187C0.068682 18.3204 0.0473941 18.3204 0.0175816 18.3204C0.133395 17.8088 0.262459 17.3029 0.40673 16.7986C0.439196 16.6851 0.471396 16.5714 0.503533 16.4578C0.594737 16.1353 0.68632 15.813 0.778251 15.4908C0.834936 15.2921 0.891265 15.0932 0.947373 14.8943C0.968664 14.8191 0.990092 14.7439 1.01166 14.6688C1.04169 14.5642 1.07126 14.4595 1.10074 14.3547L1.15195 14.1749C1.22552 13.845 1.16776 13.6635 1.00075 13.3782C0.291209 12.0944 -0.00312627 10.6537 2.50188e-05 9.19681L5.50227e-05 9.06869C0.00163529 8.39141 0.0464401 7.7449 0.204851 7.08417L0.229152 6.97478C0.558351 5.5103 1.33041 4.09945 2.35845 3.01105C2.40937 2.95075 2.4601 2.89028 2.51061 2.82963C3.10067 2.15702 3.83464 1.6305 4.60569 1.18517L4.76187 1.09373C6.10757 0.327973 7.61791 -0.00682818 9.15576 0.000105416ZM4.55887 2.96423L4.43488 3.05641C2.99321 4.18203 2.02405 5.72868 1.60937 7.50553L1.58615 7.59784C1.34296 8.58918 1.35603 9.84215 1.60937 10.8296L1.63756 10.9452C1.86787 11.8751 2.24761 12.7467 2.77981 13.545C2.76183 13.8384 2.67546 14.1322 2.59183 14.4167C2.57912 14.4599 2.56647 14.5029 2.55414 14.5457L2.51675 14.6779C2.47787 14.8153 2.43867 14.9526 2.39942 15.09C2.35985 15.2286 2.32036 15.3673 2.28109 15.506C2.25678 15.5919 2.23229 15.6777 2.20762 15.7635L2.17445 15.8805L2.14506 15.9833C2.13385 16.0253 2.12748 16.0492 2.12429 16.0735C2.12009 16.1054 2.12138 16.138 2.12437 16.2136C2.44838 16.1536 2.76387 16.0766 3.08065 15.9862L3.35451 15.9097C3.49656 15.8699 3.63855 15.8299 3.78045 15.7895C3.91867 15.7502 4.05706 15.7117 4.19549 15.6732L4.32392 15.6361C4.55943 15.5711 4.64465 15.5477 4.72581 15.5575C4.77182 15.5631 4.81653 15.5794 4.8866 15.6049C4.97819 15.6574 5.06777 15.7135 5.1558 15.7717C6.82301 16.8317 8.89322 17.1468 10.815 16.734C11.8987 16.4818 12.8898 16.0342 13.7819 15.3709L13.9063 15.2785C15.3475 14.152 16.3166 12.6068 16.7314 10.8296L16.7546 10.7373C16.9978 9.74591 16.9847 8.49294 16.7314 7.50553L16.7032 7.3899C16.3676 6.03497 15.7244 4.86506 14.7651 3.85377L14.6995 3.78359C13.3494 2.34591 11.4499 1.52328 9.48563 1.42276C7.71123 1.36776 5.97911 1.89999 4.55887 2.96423ZM18.2764 10.2678L18.2551 10.379C17.8959 12.2327 17.2541 13.9284 15.9355 15.324C15.8826 15.3863 15.8299 15.4487 15.7775 15.5113C15.2047 16.1655 14.4799 16.6658 13.7351 17.1031L13.643 17.1578C12.6128 17.7619 11.443 18.0836 10.2706 18.2735C10.3563 18.5952 10.4676 18.8844 10.6247 19.1777L10.6866 19.2942C10.9758 19.8236 11.3566 20.2693 11.7688 20.708L11.8432 20.7916C12.8733 21.9004 14.5044 22.5096 15.9888 22.5798C17.2384 22.6112 18.7819 22.3104 19.7683 21.4853C19.9701 21.3821 20.1172 21.4256 20.3158 21.4842C20.3376 21.4907 20.36 21.4973 20.3832 21.5039L20.5457 21.5475C20.7563 21.6046 20.9661 21.664 21.1759 21.7236C21.2661 21.7492 21.3564 21.7745 21.4466 21.7998L21.6077 21.8456L21.6078 21.8456C21.6737 21.8647 21.707 21.8743 21.7409 21.8785C21.7753 21.8827 21.8105 21.8813 21.8813 21.8785H21.8813C21.8071 21.452 21.6866 21.0394 21.5645 20.6246C21.5383 20.5352 21.5127 20.4456 21.4872 20.356L21.4407 20.1964C21.3882 19.9223 21.4806 19.7697 21.6297 19.5435C21.9839 18.9865 22.2298 18.3967 22.3963 17.7585L22.4419 17.587C22.6513 16.6305 22.6297 15.5129 22.3495 14.575L22.3237 14.4826C21.8883 12.9362 20.7969 11.5382 19.4048 10.7418C19.3273 10.6994 19.2497 10.6574 19.1718 10.616L19.064 10.5584C18.8095 10.4285 18.5521 10.3416 18.2764 10.2678ZM10.7488 4.65382C11.4005 5.10082 11.8045 5.73871 11.9792 6.50823C12.1004 7.30236 11.931 8.05084 11.4735 8.71066C11.2884 8.95726 11.0862 9.18501 10.8528 9.38695L10.7618 9.46797C10.6656 9.5483 10.5685 9.62057 10.467 9.69365L10.467 9.69365C10.2848 9.83091 10.1948 9.89872 10.1244 9.98291C10.0556 10.0651 10.0056 10.1629 9.90662 10.3562C9.86815 10.6473 9.87969 10.9162 9.89224 11.2085V11.2085L9.89601 11.2977H8.44467C8.43275 11.0601 8.42255 10.8235 8.41638 10.5859C8.41381 10.5054 8.41031 10.4248 8.40582 10.3444V10.3444C8.37986 9.86692 8.37151 9.71342 8.42751 9.58884C8.45404 9.52981 8.49503 9.47727 8.55543 9.39984C8.67811 9.26777 8.81536 9.15837 8.95966 9.05045C9.01859 8.99922 9.07723 8.94765 9.13523 8.89537L9.22356 8.81966C9.66664 8.46573 9.88341 8.29257 10.0463 8.07844C10.2023 7.87333 10.3089 7.63062 10.5176 7.15544C10.5336 6.74342 10.4365 6.44956 10.1711 6.13314C9.91025 5.86092 9.62355 5.70823 9.24514 5.67813C8.83334 5.68427 8.51451 5.81392 8.21314 6.09108C7.94224 6.37558 7.8648 6.65942 7.78923 7.0373H6.33789C6.33789 6.31036 6.60062 5.55475 7.11915 5.02507C8.15473 4.12068 9.55718 3.91437 10.7488 4.65382ZM9.89601 12.7022H8.44467V14.1067H9.89601V12.7022Z" fill="#4F4F56"/>
</svg>
