<?xml version="1.0" encoding="utf-8"?>
<!-- Generator: Adobe Illustrator 27.8.1, SVG Export Plug-In . SVG Version: 6.00 Build 0)  -->
<svg version="1.1" id="Layer_1" xmlns="http://www.w3.org/2000/svg" xmlns:xlink="http://www.w3.org/1999/xlink" x="0px" y="0px"
	 viewBox="0 0 43.2 43.2" style="enable-background:new 0 0 43.2 43.2;" xml:space="preserve">
<style type="text/css">
	.st0{fill:#0F3C60;}
</style>
<g>
	<g>
		<path class="st0" d="M31,10.1c-1.2,0-2.1,0.9-2.1,2.1c0,1.2,0.9,2.1,2.1,2.1c1.2,0,2.1-0.9,2.1-2.1C33.1,11.1,32.2,10.1,31,10.1z"
			/>
		<path class="st0" d="M21.7,12.8c-4.8,0-8.8,3.9-8.8,8.8c0,4.8,3.9,8.8,8.8,8.8c4.8,0,8.8-3.9,8.8-8.8
			C30.5,16.8,26.6,12.8,21.7,12.8z M21.7,27.2c-3.1,0-5.6-2.5-5.6-5.6s2.5-5.6,5.6-5.6c3.1,0,5.6,2.5,5.6,5.6S24.8,27.2,21.7,27.2z"
			/>
		<path class="st0" d="M28.7,39.4H14.5c-5.9,0-10.7-4.8-10.7-10.7V14.5c0-5.9,4.8-10.7,10.7-10.7h14.2c5.9,0,10.7,4.8,10.7,10.7
			v14.2C39.4,34.6,34.6,39.4,28.7,39.4z M14.5,7.1c-4.1,0-7.3,3.3-7.3,7.3v14.2c0,4.1,3.3,7.3,7.3,7.3h14.2c4.1,0,7.3-3.3,7.3-7.3
			V14.5c0-4.1-3.3-7.3-7.3-7.3H14.5z"/>
	</g>
</g>
</svg>
