<svg width="26" height="19" viewBox="0 0 26 19" fill="none" xmlns="http://www.w3.org/2000/svg">
<mask id="path-1-outside-1_1805_8316" maskUnits="userSpaceOnUse" x="0" y="-0.322266" width="26" height="19" fill="black">
<rect fill="white" y="-0.322266" width="26" height="19"/>
<path d="M12.5236 2.16333C12.6661 2.28006 12.8068 2.3985 12.9467 2.51833C13.1332 2.45462 13.253 2.37126 13.3996 2.24071C14.7267 1.13128 16.4294 0.556928 18.1539 0.704225C19.0909 0.818091 19.9551 1.24951 20.6617 1.86372C20.7001 1.89585 20.7384 1.92797 20.7779 1.96107C22.032 3.04185 22.6758 4.63666 22.8126 6.25897C22.8712 7.20868 22.747 8.10458 22.4528 9.00728C22.3518 9.29136 22.3518 9.29136 22.3781 9.58134C22.3951 9.60943 22.4122 9.63752 22.4298 9.66646C22.6259 9.99353 22.6388 10.3307 22.6314 10.701C22.631 10.7417 22.6306 10.7823 22.6301 10.8243C22.629 10.9234 22.6274 11.0226 22.6256 11.1218C22.6596 11.1207 22.6936 11.1196 22.7286 11.1185C23.3539 11.1073 23.8481 11.1949 24.3673 11.5543C24.5353 11.7224 24.6583 11.898 24.7764 12.1037C24.796 12.1372 24.8155 12.1707 24.8356 12.2053C25.0494 12.6419 25.0393 13.2352 24.8933 13.6935C24.6659 14.2101 24.283 14.5551 23.7671 14.7733C23.394 14.8943 23.0128 14.8756 22.6256 14.8624C22.6272 14.9211 22.6288 14.9799 22.6305 15.0403C22.644 15.7271 22.569 16.316 22.0904 16.8511C21.6281 17.2878 21.1121 17.4629 20.4855 17.4564C20.0591 17.4394 19.7108 17.283 19.3525 17.0601C19.3276 17.0934 19.3026 17.1267 19.2769 17.1611C18.9051 17.6389 18.5088 17.9689 17.903 18.0887C17.2751 18.1498 16.7398 18.0477 16.2281 17.6602C15.7375 17.247 15.5305 16.7079 15.4716 16.0781C14.9893 16.4085 14.5088 16.7412 14.0296 17.076C13.9026 17.1645 13.7753 17.2526 13.648 17.3406C13.6089 17.3682 13.5697 17.3957 13.5294 17.4241C13.4926 17.4495 13.4559 17.4748 13.4181 17.501C13.3861 17.5233 13.354 17.5457 13.3211 17.5687C13.1464 17.6663 12.9979 17.6739 12.8064 17.6212C12.6911 17.5586 12.6911 17.5586 12.5684 17.4778C12.5232 17.4481 12.4781 17.4185 12.4315 17.388C12.2091 17.2379 11.9885 17.0856 11.7689 16.9315C11.6752 16.866 11.5814 16.8004 11.4877 16.7349C11.4192 16.6871 11.4192 16.6871 11.3493 16.6382C11.1586 16.5053 10.9671 16.3734 10.7753 16.2418C10.7438 16.2202 10.7123 16.1986 10.6799 16.1763C10.6094 16.128 10.539 16.0797 10.4685 16.0314C10.4726 16.0714 10.4726 16.0714 10.4767 16.1123C10.5043 16.6075 10.3171 17.0589 9.99817 17.4343C9.61008 17.8333 9.14068 18.0868 8.57802 18.1024C7.95597 18.1083 7.47904 17.9516 7.0084 17.5276C6.87404 17.3782 6.75122 17.2235 6.63434 17.0601C6.56671 17.0947 6.56671 17.0947 6.49771 17.13C6.43806 17.1603 6.37839 17.1905 6.31872 17.2208C6.27424 17.2436 6.27424 17.2436 6.22886 17.2669C5.76687 17.5003 5.19616 17.5119 4.69972 17.364C4.07527 17.1204 3.71999 16.7019 3.45388 16.1068C3.35183 15.8348 3.35557 15.579 3.35836 15.292C3.35857 15.2507 3.35878 15.2094 3.35899 15.1668C3.35954 15.0654 3.36038 14.9639 3.36128 14.8624C3.31432 14.8646 3.26737 14.8668 3.21899 14.869C2.58024 14.8897 2.03086 14.7865 1.53772 14.3481C1.15286 13.9566 1.00683 13.5299 1 12.9892C1.00491 12.4779 1.15713 12.0902 1.50265 11.7063C2.07512 11.1858 2.6035 11.1104 3.36128 11.1218C3.35965 11.0631 3.35802 11.0044 3.35635 10.9439C3.34691 10.4594 3.34861 10.0498 3.58338 9.61386C3.69205 9.37478 3.5758 9.1353 3.49829 8.89753C2.9434 7.1797 3.0726 5.31561 3.86975 3.69612C4.52961 2.41275 5.62238 1.34699 7.0108 0.897513C8.93277 0.317848 10.991 0.934636 12.5236 2.16333ZM5.37187 3.2197C4.42561 4.41711 4.00846 5.92206 4.181 7.43833C4.24003 7.88619 4.33034 8.31119 4.48347 8.73714C4.51638 8.72702 4.54929 8.71689 4.58319 8.70646C5.19847 8.53296 5.83007 8.51802 6.40402 8.83797C6.46655 8.88036 6.52733 8.92534 6.58758 8.97093C6.61844 8.97093 6.6493 8.97093 6.68109 8.97093C6.73906 8.89281 6.79408 8.81249 6.84767 8.7313C7.15587 8.29871 7.60845 8.04493 8.13059 7.94226C8.77897 7.89601 9.25765 8.04892 9.79634 8.39523C10.5689 9.14743 10.4377 10.0454 10.4685 11.1218C12.1349 11.1218 13.8014 11.1218 15.5184 11.1218C15.5338 10.5817 15.5492 10.0417 15.5651 9.48527C15.8236 8.81323 16.0272 8.41775 16.6696 8.11906C17.1652 7.91286 17.6949 7.8554 18.211 8.03358C18.6967 8.24424 19.0003 8.54788 19.3057 8.97093C19.4488 8.91728 19.5829 8.85518 19.7178 8.7839C20.2925 8.49813 20.9033 8.5525 21.5034 8.73714C21.9782 7.15485 21.9641 5.57251 21.1773 4.09331C20.5828 3.00499 19.6588 2.1402 18.4566 1.77167C17.1831 1.44993 15.8902 1.83329 14.787 2.48381C14.2929 2.78743 13.8432 3.14774 13.4252 3.54884C13.2849 3.67193 13.1841 3.72747 12.9993 3.75158C12.7349 3.71985 12.5905 3.56833 12.4148 3.38336C11.418 2.3677 9.95985 1.67561 8.53388 1.65623C7.26249 1.66549 6.19897 2.26811 5.37187 3.2197ZM7.64164 9.24637C7.3953 9.58314 7.40867 9.90677 7.40959 10.3115C7.40924 10.3762 7.40884 10.4409 7.40839 10.5056C7.40735 10.6807 7.40721 10.8558 7.4073 11.0308C7.4073 11.1773 7.4069 11.3238 7.40651 11.4704C7.40562 11.8163 7.40548 12.1622 7.4058 12.5081C7.40611 12.864 7.40504 13.2199 7.4033 13.5759C7.40187 13.8822 7.40134 14.1886 7.40152 14.495C7.40162 14.6776 7.40137 14.8602 7.40022 15.0429C7.39917 15.2148 7.39927 15.3867 7.40021 15.5586C7.40045 15.6511 7.39953 15.7436 7.39857 15.836C7.40198 16.2005 7.45564 16.4747 7.66301 16.7795C7.76572 16.8864 7.76572 16.8864 7.87927 16.9461C7.91459 16.9674 7.94991 16.9886 7.9863 17.0106C8.25245 17.1456 8.53215 17.1547 8.81644 17.0694C9.16166 16.9174 9.32169 16.6885 9.48657 16.3587C9.49135 16.2713 9.49309 16.1837 9.49345 16.0961C9.49379 16.0403 9.49412 15.9844 9.49447 15.9269C9.49459 15.8653 9.49472 15.8037 9.49485 15.7402C9.49514 15.6749 9.49545 15.6097 9.49578 15.5444C9.49676 15.3296 9.49725 15.1148 9.49771 14.9001C9.4979 14.8261 9.4981 14.7522 9.49829 14.6782C9.49918 14.3306 9.49985 13.9831 9.50024 13.6355C9.50069 13.2345 9.50192 12.8336 9.50381 12.4326C9.50523 12.1226 9.50592 11.8126 9.50607 11.5026C9.50618 11.3175 9.5066 11.1324 9.50778 10.9473C9.50887 10.773 9.50906 10.5987 9.50858 10.4243C9.50855 10.3303 9.50944 10.2362 9.51036 10.1421C9.50814 9.75503 9.46849 9.49454 9.20931 9.1934C8.94136 8.96849 8.72985 8.85368 8.36785 8.86609C8.05958 8.90209 7.85868 9.02984 7.64164 9.24637ZM16.7127 9.24637C16.4656 9.58409 16.4795 9.9099 16.4799 10.3158C16.4795 10.381 16.479 10.4462 16.4785 10.5113C16.4772 10.6876 16.4769 10.8639 16.4768 11.0403C16.4767 11.1506 16.4764 11.261 16.476 11.3713C16.4747 11.7569 16.4742 12.1425 16.4743 12.528C16.4744 12.8865 16.4729 13.245 16.4707 13.6035C16.4688 13.912 16.4681 14.2206 16.4682 14.5292C16.4682 14.7131 16.4678 14.897 16.4663 15.081C16.465 15.2541 16.465 15.4272 16.466 15.6004C16.4662 15.6935 16.465 15.7867 16.4638 15.8798C16.4678 16.2587 16.5308 16.533 16.7808 16.8263C17.0473 17.0389 17.2924 17.1278 17.6336 17.1223C17.9088 17.0893 18.1384 16.9795 18.3204 16.7687C18.4863 16.526 18.5633 16.3417 18.5645 16.0455C18.5648 15.99 18.5652 15.9345 18.5655 15.8773C18.5656 15.8163 18.5658 15.7553 18.5659 15.6924C18.5662 15.6276 18.5665 15.5628 18.5668 15.498C18.5678 15.285 18.5683 15.072 18.5688 14.859C18.569 14.7856 18.5691 14.7122 18.5693 14.6388C18.5702 14.2939 18.5709 13.949 18.5713 13.6042C18.5717 13.2064 18.573 12.8087 18.5749 12.411C18.5763 12.1033 18.577 11.7957 18.5771 11.4881C18.5772 11.3044 18.5776 11.1208 18.5788 10.9372C18.5799 10.7643 18.5801 10.5914 18.5796 10.4185C18.5796 10.3252 18.5805 10.2319 18.5814 10.1386C18.5792 9.75303 18.5385 9.49339 18.2804 9.1934C18.0124 8.96849 17.8009 8.85368 17.4389 8.86609C17.1306 8.90209 16.9297 9.02984 16.7127 9.24637ZM4.51452 9.9786C4.32135 10.2629 4.32954 10.5491 4.33035 10.8803C4.33011 10.9308 4.32987 10.9814 4.32963 11.0334C4.32898 11.2001 4.32902 11.3668 4.32913 11.5335C4.32895 11.6496 4.32875 11.7657 4.32852 11.8818C4.32818 12.1251 4.32819 12.3684 4.32843 12.6117C4.32871 12.9231 4.32791 13.2345 4.32683 13.546C4.32614 13.7858 4.3261 14.0256 4.32625 14.2653C4.32622 14.3801 4.32598 14.4949 4.32551 14.6097C4.32493 14.7704 4.32525 14.9311 4.32579 15.0918C4.32543 15.139 4.32507 15.1862 4.3247 15.2348C4.32708 15.5548 4.3661 15.8205 4.55726 16.0878C4.81112 16.3316 5.03379 16.4568 5.39233 16.4727C5.72493 16.4617 5.95271 16.3571 6.18137 16.1161C6.43622 15.7821 6.46803 15.4207 6.46545 15.0124C6.46582 14.9394 6.46582 14.9394 6.4662 14.865C6.46681 14.7054 6.46641 14.5457 6.46593 14.3861C6.46603 14.2745 6.46617 14.1629 6.46634 14.0513C6.46655 13.8178 6.46625 13.5843 6.46559 13.3509C6.46479 13.0523 6.46525 12.7538 6.46609 12.4552C6.4666 12.2249 6.46644 11.9945 6.46607 11.7642C6.46598 11.6542 6.46609 11.5441 6.46642 11.434C6.46678 11.28 6.46623 11.1259 6.46545 10.9718C6.46574 10.9268 6.46602 10.8818 6.46632 10.8353C6.46294 10.4728 6.40671 10.1052 6.14977 9.82901C5.89779 9.62093 5.61488 9.4924 5.28548 9.51614C4.9305 9.57219 4.75168 9.7079 4.51452 9.9786ZM19.7499 9.94701C19.5273 10.2564 19.5258 10.595 19.5267 10.9612C19.5265 11.0099 19.5262 11.0585 19.526 11.1086C19.5253 11.2687 19.5254 11.4289 19.5255 11.589C19.5253 11.7008 19.5251 11.8125 19.5249 11.9242C19.5245 12.1583 19.5245 12.3923 19.5248 12.6263C19.525 12.9256 19.5243 13.2249 19.5232 13.5242C19.5225 13.7549 19.5224 13.9856 19.5226 14.2164C19.5226 14.3267 19.5223 14.437 19.5218 14.5473C19.5213 14.7019 19.5216 14.8564 19.5221 15.0109C19.5218 15.0561 19.5214 15.1013 19.521 15.1479C19.5241 15.5478 19.5979 15.8974 19.88 16.1947C20.1363 16.4195 20.3847 16.4847 20.7238 16.4697C21.0637 16.422 21.2624 16.2467 21.4825 15.9938C21.6671 15.7135 21.6573 15.4265 21.6565 15.1032C21.6567 15.0526 21.657 15.002 21.6572 14.9499C21.6579 14.7829 21.6578 14.616 21.6577 14.4491C21.6579 14.3329 21.6581 14.2167 21.6583 14.1004C21.6587 13.8569 21.6587 13.6134 21.6584 13.3699C21.6581 13.0581 21.6589 12.7463 21.66 12.4344C21.6607 12.1944 21.6607 11.9544 21.6606 11.7145C21.6606 11.5995 21.6609 11.4845 21.6613 11.3696C21.6619 11.2087 21.6616 11.0479 21.6611 10.8871C21.6614 10.8398 21.6618 10.7924 21.6621 10.7436C21.6592 10.3467 21.5639 10.0862 21.2952 9.78956C21.0964 9.59583 20.8806 9.52752 20.6091 9.51449C20.2604 9.52024 19.9667 9.67598 19.7499 9.94701ZM2.28566 12.3333C2.04229 12.6042 1.98545 12.7608 1.98941 13.1269C2.01318 13.3449 2.08736 13.4897 2.23909 13.6467C2.60971 13.9249 2.86885 13.8805 3.36128 13.8805C3.36128 13.2942 3.36128 12.7078 3.36128 12.1037C2.76285 12.0698 2.76285 12.0698 2.28566 12.3333ZM10.4685 12.1037C10.4685 12.6901 10.4685 13.2764 10.4685 13.8805C12.1349 13.8805 13.8014 13.8805 15.5184 13.8805C15.5184 13.2942 15.5184 12.7078 15.5184 12.1037C13.8519 12.1037 12.1854 12.1037 10.4685 12.1037ZM22.6256 12.1037C22.6256 12.6901 22.6256 13.2764 22.6256 13.8805C23.2594 13.9124 23.2594 13.9124 23.7361 13.6292C23.961 13.3668 24.0074 13.1881 23.9978 12.846C23.9671 12.5921 23.8385 12.4731 23.6601 12.3024C23.3127 12.0523 23.0715 12.1037 22.6256 12.1037ZM10.6555 14.8624C10.8468 15.0569 10.8468 15.0569 11.0531 15.2188C11.0835 15.24 11.1138 15.2612 11.145 15.2831C11.1935 15.3164 11.1935 15.3164 11.2429 15.3505C11.2941 15.3861 11.2941 15.3861 11.3463 15.4225C11.4198 15.4738 11.4934 15.525 11.5671 15.576C11.7311 15.6899 11.8946 15.8044 12.0581 15.919C12.1381 15.9751 12.2182 16.0311 12.2984 16.0871C12.3355 16.113 12.3726 16.1389 12.4108 16.1656C12.4463 16.1902 12.4818 16.2147 12.5184 16.2399C12.5841 16.2868 12.6485 16.3355 12.7112 16.3863C12.8034 16.4628 12.8034 16.4628 12.9467 16.5457C13.1113 16.4984 13.2411 16.4182 13.3799 16.3196C13.4173 16.2932 13.4547 16.2669 13.4932 16.2397C13.5327 16.2115 13.5722 16.1832 13.613 16.1541C13.6747 16.1105 13.6747 16.1105 13.7377 16.0659C13.8225 16.0059 13.9073 15.9457 13.992 15.8855C14.1416 15.7791 14.2916 15.6733 14.4416 15.5676C14.5396 15.4985 14.6375 15.4292 14.7353 15.36C14.9237 15.2269 15.1134 15.0958 15.3037 14.9656C15.3283 14.947 15.3528 14.9284 15.3781 14.9092C15.3781 14.8938 15.3781 14.8783 15.3781 14.8624C13.8196 14.8624 12.2612 14.8624 10.6555 14.8624Z"/>
</mask>
<path d="M12.5236 2.16333C12.6661 2.28006 12.8068 2.3985 12.9467 2.51833C13.1332 2.45462 13.253 2.37126 13.3996 2.24071C14.7267 1.13128 16.4294 0.556928 18.1539 0.704225C19.0909 0.818091 19.9551 1.24951 20.6617 1.86372C20.7001 1.89585 20.7384 1.92797 20.7779 1.96107C22.032 3.04185 22.6758 4.63666 22.8126 6.25897C22.8712 7.20868 22.747 8.10458 22.4528 9.00728C22.3518 9.29136 22.3518 9.29136 22.3781 9.58134C22.3951 9.60943 22.4122 9.63752 22.4298 9.66646C22.6259 9.99353 22.6388 10.3307 22.6314 10.701C22.631 10.7417 22.6306 10.7823 22.6301 10.8243C22.629 10.9234 22.6274 11.0226 22.6256 11.1218C22.6596 11.1207 22.6936 11.1196 22.7286 11.1185C23.3539 11.1073 23.8481 11.1949 24.3673 11.5543C24.5353 11.7224 24.6583 11.898 24.7764 12.1037C24.796 12.1372 24.8155 12.1707 24.8356 12.2053C25.0494 12.6419 25.0393 13.2352 24.8933 13.6935C24.6659 14.2101 24.283 14.5551 23.7671 14.7733C23.394 14.8943 23.0128 14.8756 22.6256 14.8624C22.6272 14.9211 22.6288 14.9799 22.6305 15.0403C22.644 15.7271 22.569 16.316 22.0904 16.8511C21.6281 17.2878 21.1121 17.4629 20.4855 17.4564C20.0591 17.4394 19.7108 17.283 19.3525 17.0601C19.3276 17.0934 19.3026 17.1267 19.2769 17.1611C18.9051 17.6389 18.5088 17.9689 17.903 18.0887C17.2751 18.1498 16.7398 18.0477 16.2281 17.6602C15.7375 17.247 15.5305 16.7079 15.4716 16.0781C14.9893 16.4085 14.5088 16.7412 14.0296 17.076C13.9026 17.1645 13.7753 17.2526 13.648 17.3406C13.6089 17.3682 13.5697 17.3957 13.5294 17.4241C13.4926 17.4495 13.4559 17.4748 13.4181 17.501C13.3861 17.5233 13.354 17.5457 13.3211 17.5687C13.1464 17.6663 12.9979 17.6739 12.8064 17.6212C12.6911 17.5586 12.6911 17.5586 12.5684 17.4778C12.5232 17.4481 12.4781 17.4185 12.4315 17.388C12.2091 17.2379 11.9885 17.0856 11.7689 16.9315C11.6752 16.866 11.5814 16.8004 11.4877 16.7349C11.4192 16.6871 11.4192 16.6871 11.3493 16.6382C11.1586 16.5053 10.9671 16.3734 10.7753 16.2418C10.7438 16.2202 10.7123 16.1986 10.6799 16.1763C10.6094 16.128 10.539 16.0797 10.4685 16.0314C10.4726 16.0714 10.4726 16.0714 10.4767 16.1123C10.5043 16.6075 10.3171 17.0589 9.99817 17.4343C9.61008 17.8333 9.14068 18.0868 8.57802 18.1024C7.95597 18.1083 7.47904 17.9516 7.0084 17.5276C6.87404 17.3782 6.75122 17.2235 6.63434 17.0601C6.56671 17.0947 6.56671 17.0947 6.49771 17.13C6.43806 17.1603 6.37839 17.1905 6.31872 17.2208C6.27424 17.2436 6.27424 17.2436 6.22886 17.2669C5.76687 17.5003 5.19616 17.5119 4.69972 17.364C4.07527 17.1204 3.71999 16.7019 3.45388 16.1068C3.35183 15.8348 3.35557 15.579 3.35836 15.292C3.35857 15.2507 3.35878 15.2094 3.35899 15.1668C3.35954 15.0654 3.36038 14.9639 3.36128 14.8624C3.31432 14.8646 3.26737 14.8668 3.21899 14.869C2.58024 14.8897 2.03086 14.7865 1.53772 14.3481C1.15286 13.9566 1.00683 13.5299 1 12.9892C1.00491 12.4779 1.15713 12.0902 1.50265 11.7063C2.07512 11.1858 2.6035 11.1104 3.36128 11.1218C3.35965 11.0631 3.35802 11.0044 3.35635 10.9439C3.34691 10.4594 3.34861 10.0498 3.58338 9.61386C3.69205 9.37478 3.5758 9.1353 3.49829 8.89753C2.9434 7.1797 3.0726 5.31561 3.86975 3.69612C4.52961 2.41275 5.62238 1.34699 7.0108 0.897513C8.93277 0.317848 10.991 0.934636 12.5236 2.16333ZM5.37187 3.2197C4.42561 4.41711 4.00846 5.92206 4.181 7.43833C4.24003 7.88619 4.33034 8.31119 4.48347 8.73714C4.51638 8.72702 4.54929 8.71689 4.58319 8.70646C5.19847 8.53296 5.83007 8.51802 6.40402 8.83797C6.46655 8.88036 6.52733 8.92534 6.58758 8.97093C6.61844 8.97093 6.6493 8.97093 6.68109 8.97093C6.73906 8.89281 6.79408 8.81249 6.84767 8.7313C7.15587 8.29871 7.60845 8.04493 8.13059 7.94226C8.77897 7.89601 9.25765 8.04892 9.79634 8.39523C10.5689 9.14743 10.4377 10.0454 10.4685 11.1218C12.1349 11.1218 13.8014 11.1218 15.5184 11.1218C15.5338 10.5817 15.5492 10.0417 15.5651 9.48527C15.8236 8.81323 16.0272 8.41775 16.6696 8.11906C17.1652 7.91286 17.6949 7.8554 18.211 8.03358C18.6967 8.24424 19.0003 8.54788 19.3057 8.97093C19.4488 8.91728 19.5829 8.85518 19.7178 8.7839C20.2925 8.49813 20.9033 8.5525 21.5034 8.73714C21.9782 7.15485 21.9641 5.57251 21.1773 4.09331C20.5828 3.00499 19.6588 2.1402 18.4566 1.77167C17.1831 1.44993 15.8902 1.83329 14.787 2.48381C14.2929 2.78743 13.8432 3.14774 13.4252 3.54884C13.2849 3.67193 13.1841 3.72747 12.9993 3.75158C12.7349 3.71985 12.5905 3.56833 12.4148 3.38336C11.418 2.3677 9.95985 1.67561 8.53388 1.65623C7.26249 1.66549 6.19897 2.26811 5.37187 3.2197ZM7.64164 9.24637C7.3953 9.58314 7.40867 9.90677 7.40959 10.3115C7.40924 10.3762 7.40884 10.4409 7.40839 10.5056C7.40735 10.6807 7.40721 10.8558 7.4073 11.0308C7.4073 11.1773 7.4069 11.3238 7.40651 11.4704C7.40562 11.8163 7.40548 12.1622 7.4058 12.5081C7.40611 12.864 7.40504 13.2199 7.4033 13.5759C7.40187 13.8822 7.40134 14.1886 7.40152 14.495C7.40162 14.6776 7.40137 14.8602 7.40022 15.0429C7.39917 15.2148 7.39927 15.3867 7.40021 15.5586C7.40045 15.6511 7.39953 15.7436 7.39857 15.836C7.40198 16.2005 7.45564 16.4747 7.66301 16.7795C7.76572 16.8864 7.76572 16.8864 7.87927 16.9461C7.91459 16.9674 7.94991 16.9886 7.9863 17.0106C8.25245 17.1456 8.53215 17.1547 8.81644 17.0694C9.16166 16.9174 9.32169 16.6885 9.48657 16.3587C9.49135 16.2713 9.49309 16.1837 9.49345 16.0961C9.49379 16.0403 9.49412 15.9844 9.49447 15.9269C9.49459 15.8653 9.49472 15.8037 9.49485 15.7402C9.49514 15.6749 9.49545 15.6097 9.49578 15.5444C9.49676 15.3296 9.49725 15.1148 9.49771 14.9001C9.4979 14.8261 9.4981 14.7522 9.49829 14.6782C9.49918 14.3306 9.49985 13.9831 9.50024 13.6355C9.50069 13.2345 9.50192 12.8336 9.50381 12.4326C9.50523 12.1226 9.50592 11.8126 9.50607 11.5026C9.50618 11.3175 9.5066 11.1324 9.50778 10.9473C9.50887 10.773 9.50906 10.5987 9.50858 10.4243C9.50855 10.3303 9.50944 10.2362 9.51036 10.1421C9.50814 9.75503 9.46849 9.49454 9.20931 9.1934C8.94136 8.96849 8.72985 8.85368 8.36785 8.86609C8.05958 8.90209 7.85868 9.02984 7.64164 9.24637ZM16.7127 9.24637C16.4656 9.58409 16.4795 9.9099 16.4799 10.3158C16.4795 10.381 16.479 10.4462 16.4785 10.5113C16.4772 10.6876 16.4769 10.8639 16.4768 11.0403C16.4767 11.1506 16.4764 11.261 16.476 11.3713C16.4747 11.7569 16.4742 12.1425 16.4743 12.528C16.4744 12.8865 16.4729 13.245 16.4707 13.6035C16.4688 13.912 16.4681 14.2206 16.4682 14.5292C16.4682 14.7131 16.4678 14.897 16.4663 15.081C16.465 15.2541 16.465 15.4272 16.466 15.6004C16.4662 15.6935 16.465 15.7867 16.4638 15.8798C16.4678 16.2587 16.5308 16.533 16.7808 16.8263C17.0473 17.0389 17.2924 17.1278 17.6336 17.1223C17.9088 17.0893 18.1384 16.9795 18.3204 16.7687C18.4863 16.526 18.5633 16.3417 18.5645 16.0455C18.5648 15.99 18.5652 15.9345 18.5655 15.8773C18.5656 15.8163 18.5658 15.7553 18.5659 15.6924C18.5662 15.6276 18.5665 15.5628 18.5668 15.498C18.5678 15.285 18.5683 15.072 18.5688 14.859C18.569 14.7856 18.5691 14.7122 18.5693 14.6388C18.5702 14.2939 18.5709 13.949 18.5713 13.6042C18.5717 13.2064 18.573 12.8087 18.5749 12.411C18.5763 12.1033 18.577 11.7957 18.5771 11.4881C18.5772 11.3044 18.5776 11.1208 18.5788 10.9372C18.5799 10.7643 18.5801 10.5914 18.5796 10.4185C18.5796 10.3252 18.5805 10.2319 18.5814 10.1386C18.5792 9.75303 18.5385 9.49339 18.2804 9.1934C18.0124 8.96849 17.8009 8.85368 17.4389 8.86609C17.1306 8.90209 16.9297 9.02984 16.7127 9.24637ZM4.51452 9.9786C4.32135 10.2629 4.32954 10.5491 4.33035 10.8803C4.33011 10.9308 4.32987 10.9814 4.32963 11.0334C4.32898 11.2001 4.32902 11.3668 4.32913 11.5335C4.32895 11.6496 4.32875 11.7657 4.32852 11.8818C4.32818 12.1251 4.32819 12.3684 4.32843 12.6117C4.32871 12.9231 4.32791 13.2345 4.32683 13.546C4.32614 13.7858 4.3261 14.0256 4.32625 14.2653C4.32622 14.3801 4.32598 14.4949 4.32551 14.6097C4.32493 14.7704 4.32525 14.9311 4.32579 15.0918C4.32543 15.139 4.32507 15.1862 4.3247 15.2348C4.32708 15.5548 4.3661 15.8205 4.55726 16.0878C4.81112 16.3316 5.03379 16.4568 5.39233 16.4727C5.72493 16.4617 5.95271 16.3571 6.18137 16.1161C6.43622 15.7821 6.46803 15.4207 6.46545 15.0124C6.46582 14.9394 6.46582 14.9394 6.4662 14.865C6.46681 14.7054 6.46641 14.5457 6.46593 14.3861C6.46603 14.2745 6.46617 14.1629 6.46634 14.0513C6.46655 13.8178 6.46625 13.5843 6.46559 13.3509C6.46479 13.0523 6.46525 12.7538 6.46609 12.4552C6.4666 12.2249 6.46644 11.9945 6.46607 11.7642C6.46598 11.6542 6.46609 11.5441 6.46642 11.434C6.46678 11.28 6.46623 11.1259 6.46545 10.9718C6.46574 10.9268 6.46602 10.8818 6.46632 10.8353C6.46294 10.4728 6.40671 10.1052 6.14977 9.82901C5.89779 9.62093 5.61488 9.4924 5.28548 9.51614C4.9305 9.57219 4.75168 9.7079 4.51452 9.9786ZM19.7499 9.94701C19.5273 10.2564 19.5258 10.595 19.5267 10.9612C19.5265 11.0099 19.5262 11.0585 19.526 11.1086C19.5253 11.2687 19.5254 11.4289 19.5255 11.589C19.5253 11.7008 19.5251 11.8125 19.5249 11.9242C19.5245 12.1583 19.5245 12.3923 19.5248 12.6263C19.525 12.9256 19.5243 13.2249 19.5232 13.5242C19.5225 13.7549 19.5224 13.9856 19.5226 14.2164C19.5226 14.3267 19.5223 14.437 19.5218 14.5473C19.5213 14.7019 19.5216 14.8564 19.5221 15.0109C19.5218 15.0561 19.5214 15.1013 19.521 15.1479C19.5241 15.5478 19.5979 15.8974 19.88 16.1947C20.1363 16.4195 20.3847 16.4847 20.7238 16.4697C21.0637 16.422 21.2624 16.2467 21.4825 15.9938C21.6671 15.7135 21.6573 15.4265 21.6565 15.1032C21.6567 15.0526 21.657 15.002 21.6572 14.9499C21.6579 14.7829 21.6578 14.616 21.6577 14.4491C21.6579 14.3329 21.6581 14.2167 21.6583 14.1004C21.6587 13.8569 21.6587 13.6134 21.6584 13.3699C21.6581 13.0581 21.6589 12.7463 21.66 12.4344C21.6607 12.1944 21.6607 11.9544 21.6606 11.7145C21.6606 11.5995 21.6609 11.4845 21.6613 11.3696C21.6619 11.2087 21.6616 11.0479 21.6611 10.8871C21.6614 10.8398 21.6618 10.7924 21.6621 10.7436C21.6592 10.3467 21.5639 10.0862 21.2952 9.78956C21.0964 9.59583 20.8806 9.52752 20.6091 9.51449C20.2604 9.52024 19.9667 9.67598 19.7499 9.94701ZM2.28566 12.3333C2.04229 12.6042 1.98545 12.7608 1.98941 13.1269C2.01318 13.3449 2.08736 13.4897 2.23909 13.6467C2.60971 13.9249 2.86885 13.8805 3.36128 13.8805C3.36128 13.2942 3.36128 12.7078 3.36128 12.1037C2.76285 12.0698 2.76285 12.0698 2.28566 12.3333ZM10.4685 12.1037C10.4685 12.6901 10.4685 13.2764 10.4685 13.8805C12.1349 13.8805 13.8014 13.8805 15.5184 13.8805C15.5184 13.2942 15.5184 12.7078 15.5184 12.1037C13.8519 12.1037 12.1854 12.1037 10.4685 12.1037ZM22.6256 12.1037C22.6256 12.6901 22.6256 13.2764 22.6256 13.8805C23.2594 13.9124 23.2594 13.9124 23.7361 13.6292C23.961 13.3668 24.0074 13.1881 23.9978 12.846C23.9671 12.5921 23.8385 12.4731 23.6601 12.3024C23.3127 12.0523 23.0715 12.1037 22.6256 12.1037ZM10.6555 14.8624C10.8468 15.0569 10.8468 15.0569 11.0531 15.2188C11.0835 15.24 11.1138 15.2612 11.145 15.2831C11.1935 15.3164 11.1935 15.3164 11.2429 15.3505C11.2941 15.3861 11.2941 15.3861 11.3463 15.4225C11.4198 15.4738 11.4934 15.525 11.5671 15.576C11.7311 15.6899 11.8946 15.8044 12.0581 15.919C12.1381 15.9751 12.2182 16.0311 12.2984 16.0871C12.3355 16.113 12.3726 16.1389 12.4108 16.1656C12.4463 16.1902 12.4818 16.2147 12.5184 16.2399C12.5841 16.2868 12.6485 16.3355 12.7112 16.3863C12.8034 16.4628 12.8034 16.4628 12.9467 16.5457C13.1113 16.4984 13.2411 16.4182 13.3799 16.3196C13.4173 16.2932 13.4547 16.2669 13.4932 16.2397C13.5327 16.2115 13.5722 16.1832 13.613 16.1541C13.6747 16.1105 13.6747 16.1105 13.7377 16.0659C13.8225 16.0059 13.9073 15.9457 13.992 15.8855C14.1416 15.7791 14.2916 15.6733 14.4416 15.5676C14.5396 15.4985 14.6375 15.4292 14.7353 15.36C14.9237 15.2269 15.1134 15.0958 15.3037 14.9656C15.3283 14.947 15.3528 14.9284 15.3781 14.9092C15.3781 14.8938 15.3781 14.8783 15.3781 14.8624C13.8196 14.8624 12.2612 14.8624 10.6555 14.8624Z" fill="#4F4F56"/>
<path d="M12.5236 2.16333C12.6661 2.28006 12.8068 2.3985 12.9467 2.51833C13.1332 2.45462 13.253 2.37126 13.3996 2.24071C14.7267 1.13128 16.4294 0.556928 18.1539 0.704225C19.0909 0.818091 19.9551 1.24951 20.6617 1.86372C20.7001 1.89585 20.7384 1.92797 20.7779 1.96107C22.032 3.04185 22.6758 4.63666 22.8126 6.25897C22.8712 7.20868 22.747 8.10458 22.4528 9.00728C22.3518 9.29136 22.3518 9.29136 22.3781 9.58134C22.3951 9.60943 22.4122 9.63752 22.4298 9.66646C22.6259 9.99353 22.6388 10.3307 22.6314 10.701C22.631 10.7417 22.6306 10.7823 22.6301 10.8243C22.629 10.9234 22.6274 11.0226 22.6256 11.1218C22.6596 11.1207 22.6936 11.1196 22.7286 11.1185C23.3539 11.1073 23.8481 11.1949 24.3673 11.5543C24.5353 11.7224 24.6583 11.898 24.7764 12.1037C24.796 12.1372 24.8155 12.1707 24.8356 12.2053C25.0494 12.6419 25.0393 13.2352 24.8933 13.6935C24.6659 14.2101 24.283 14.5551 23.7671 14.7733C23.394 14.8943 23.0128 14.8756 22.6256 14.8624C22.6272 14.9211 22.6288 14.9799 22.6305 15.0403C22.644 15.7271 22.569 16.316 22.0904 16.8511C21.6281 17.2878 21.1121 17.4629 20.4855 17.4564C20.0591 17.4394 19.7108 17.283 19.3525 17.0601C19.3276 17.0934 19.3026 17.1267 19.2769 17.1611C18.9051 17.6389 18.5088 17.9689 17.903 18.0887C17.2751 18.1498 16.7398 18.0477 16.2281 17.6602C15.7375 17.247 15.5305 16.7079 15.4716 16.0781C14.9893 16.4085 14.5088 16.7412 14.0296 17.076C13.9026 17.1645 13.7753 17.2526 13.648 17.3406C13.6089 17.3682 13.5697 17.3957 13.5294 17.4241C13.4926 17.4495 13.4559 17.4748 13.4181 17.501C13.3861 17.5233 13.354 17.5457 13.3211 17.5687C13.1464 17.6663 12.9979 17.6739 12.8064 17.6212C12.6911 17.5586 12.6911 17.5586 12.5684 17.4778C12.5232 17.4481 12.4781 17.4185 12.4315 17.388C12.2091 17.2379 11.9885 17.0856 11.7689 16.9315C11.6752 16.866 11.5814 16.8004 11.4877 16.7349C11.4192 16.6871 11.4192 16.6871 11.3493 16.6382C11.1586 16.5053 10.9671 16.3734 10.7753 16.2418C10.7438 16.2202 10.7123 16.1986 10.6799 16.1763C10.6094 16.128 10.539 16.0797 10.4685 16.0314C10.4726 16.0714 10.4726 16.0714 10.4767 16.1123C10.5043 16.6075 10.3171 17.0589 9.99817 17.4343C9.61008 17.8333 9.14068 18.0868 8.57802 18.1024C7.95597 18.1083 7.47904 17.9516 7.0084 17.5276C6.87404 17.3782 6.75122 17.2235 6.63434 17.0601C6.56671 17.0947 6.56671 17.0947 6.49771 17.13C6.43806 17.1603 6.37839 17.1905 6.31872 17.2208C6.27424 17.2436 6.27424 17.2436 6.22886 17.2669C5.76687 17.5003 5.19616 17.5119 4.69972 17.364C4.07527 17.1204 3.71999 16.7019 3.45388 16.1068C3.35183 15.8348 3.35557 15.579 3.35836 15.292C3.35857 15.2507 3.35878 15.2094 3.35899 15.1668C3.35954 15.0654 3.36038 14.9639 3.36128 14.8624C3.31432 14.8646 3.26737 14.8668 3.21899 14.869C2.58024 14.8897 2.03086 14.7865 1.53772 14.3481C1.15286 13.9566 1.00683 13.5299 1 12.9892C1.00491 12.4779 1.15713 12.0902 1.50265 11.7063C2.07512 11.1858 2.6035 11.1104 3.36128 11.1218C3.35965 11.0631 3.35802 11.0044 3.35635 10.9439C3.34691 10.4594 3.34861 10.0498 3.58338 9.61386C3.69205 9.37478 3.5758 9.1353 3.49829 8.89753C2.9434 7.1797 3.0726 5.31561 3.86975 3.69612C4.52961 2.41275 5.62238 1.34699 7.0108 0.897513C8.93277 0.317848 10.991 0.934636 12.5236 2.16333ZM5.37187 3.2197C4.42561 4.41711 4.00846 5.92206 4.181 7.43833C4.24003 7.88619 4.33034 8.31119 4.48347 8.73714C4.51638 8.72702 4.54929 8.71689 4.58319 8.70646C5.19847 8.53296 5.83007 8.51802 6.40402 8.83797C6.46655 8.88036 6.52733 8.92534 6.58758 8.97093C6.61844 8.97093 6.6493 8.97093 6.68109 8.97093C6.73906 8.89281 6.79408 8.81249 6.84767 8.7313C7.15587 8.29871 7.60845 8.04493 8.13059 7.94226C8.77897 7.89601 9.25765 8.04892 9.79634 8.39523C10.5689 9.14743 10.4377 10.0454 10.4685 11.1218C12.1349 11.1218 13.8014 11.1218 15.5184 11.1218C15.5338 10.5817 15.5492 10.0417 15.5651 9.48527C15.8236 8.81323 16.0272 8.41775 16.6696 8.11906C17.1652 7.91286 17.6949 7.8554 18.211 8.03358C18.6967 8.24424 19.0003 8.54788 19.3057 8.97093C19.4488 8.91728 19.5829 8.85518 19.7178 8.7839C20.2925 8.49813 20.9033 8.5525 21.5034 8.73714C21.9782 7.15485 21.9641 5.57251 21.1773 4.09331C20.5828 3.00499 19.6588 2.1402 18.4566 1.77167C17.1831 1.44993 15.8902 1.83329 14.787 2.48381C14.2929 2.78743 13.8432 3.14774 13.4252 3.54884C13.2849 3.67193 13.1841 3.72747 12.9993 3.75158C12.7349 3.71985 12.5905 3.56833 12.4148 3.38336C11.418 2.3677 9.95985 1.67561 8.53388 1.65623C7.26249 1.66549 6.19897 2.26811 5.37187 3.2197ZM7.64164 9.24637C7.3953 9.58314 7.40867 9.90677 7.40959 10.3115C7.40924 10.3762 7.40884 10.4409 7.40839 10.5056C7.40735 10.6807 7.40721 10.8558 7.4073 11.0308C7.4073 11.1773 7.4069 11.3238 7.40651 11.4704C7.40562 11.8163 7.40548 12.1622 7.4058 12.5081C7.40611 12.864 7.40504 13.2199 7.4033 13.5759C7.40187 13.8822 7.40134 14.1886 7.40152 14.495C7.40162 14.6776 7.40137 14.8602 7.40022 15.0429C7.39917 15.2148 7.39927 15.3867 7.40021 15.5586C7.40045 15.6511 7.39953 15.7436 7.39857 15.836C7.40198 16.2005 7.45564 16.4747 7.66301 16.7795C7.76572 16.8864 7.76572 16.8864 7.87927 16.9461C7.91459 16.9674 7.94991 16.9886 7.9863 17.0106C8.25245 17.1456 8.53215 17.1547 8.81644 17.0694C9.16166 16.9174 9.32169 16.6885 9.48657 16.3587C9.49135 16.2713 9.49309 16.1837 9.49345 16.0961C9.49379 16.0403 9.49412 15.9844 9.49447 15.9269C9.49459 15.8653 9.49472 15.8037 9.49485 15.7402C9.49514 15.6749 9.49545 15.6097 9.49578 15.5444C9.49676 15.3296 9.49725 15.1148 9.49771 14.9001C9.4979 14.8261 9.4981 14.7522 9.49829 14.6782C9.49918 14.3306 9.49985 13.9831 9.50024 13.6355C9.50069 13.2345 9.50192 12.8336 9.50381 12.4326C9.50523 12.1226 9.50592 11.8126 9.50607 11.5026C9.50618 11.3175 9.5066 11.1324 9.50778 10.9473C9.50887 10.773 9.50906 10.5987 9.50858 10.4243C9.50855 10.3303 9.50944 10.2362 9.51036 10.1421C9.50814 9.75503 9.46849 9.49454 9.20931 9.1934C8.94136 8.96849 8.72985 8.85368 8.36785 8.86609C8.05958 8.90209 7.85868 9.02984 7.64164 9.24637ZM16.7127 9.24637C16.4656 9.58409 16.4795 9.9099 16.4799 10.3158C16.4795 10.381 16.479 10.4462 16.4785 10.5113C16.4772 10.6876 16.4769 10.8639 16.4768 11.0403C16.4767 11.1506 16.4764 11.261 16.476 11.3713C16.4747 11.7569 16.4742 12.1425 16.4743 12.528C16.4744 12.8865 16.4729 13.245 16.4707 13.6035C16.4688 13.912 16.4681 14.2206 16.4682 14.5292C16.4682 14.7131 16.4678 14.897 16.4663 15.081C16.465 15.2541 16.465 15.4272 16.466 15.6004C16.4662 15.6935 16.465 15.7867 16.4638 15.8798C16.4678 16.2587 16.5308 16.533 16.7808 16.8263C17.0473 17.0389 17.2924 17.1278 17.6336 17.1223C17.9088 17.0893 18.1384 16.9795 18.3204 16.7687C18.4863 16.526 18.5633 16.3417 18.5645 16.0455C18.5648 15.99 18.5652 15.9345 18.5655 15.8773C18.5656 15.8163 18.5658 15.7553 18.5659 15.6924C18.5662 15.6276 18.5665 15.5628 18.5668 15.498C18.5678 15.285 18.5683 15.072 18.5688 14.859C18.569 14.7856 18.5691 14.7122 18.5693 14.6388C18.5702 14.2939 18.5709 13.949 18.5713 13.6042C18.5717 13.2064 18.573 12.8087 18.5749 12.411C18.5763 12.1033 18.577 11.7957 18.5771 11.4881C18.5772 11.3044 18.5776 11.1208 18.5788 10.9372C18.5799 10.7643 18.5801 10.5914 18.5796 10.4185C18.5796 10.3252 18.5805 10.2319 18.5814 10.1386C18.5792 9.75303 18.5385 9.49339 18.2804 9.1934C18.0124 8.96849 17.8009 8.85368 17.4389 8.86609C17.1306 8.90209 16.9297 9.02984 16.7127 9.24637ZM4.51452 9.9786C4.32135 10.2629 4.32954 10.5491 4.33035 10.8803C4.33011 10.9308 4.32987 10.9814 4.32963 11.0334C4.32898 11.2001 4.32902 11.3668 4.32913 11.5335C4.32895 11.6496 4.32875 11.7657 4.32852 11.8818C4.32818 12.1251 4.32819 12.3684 4.32843 12.6117C4.32871 12.9231 4.32791 13.2345 4.32683 13.546C4.32614 13.7858 4.3261 14.0256 4.32625 14.2653C4.32622 14.3801 4.32598 14.4949 4.32551 14.6097C4.32493 14.7704 4.32525 14.9311 4.32579 15.0918C4.32543 15.139 4.32507 15.1862 4.3247 15.2348C4.32708 15.5548 4.3661 15.8205 4.55726 16.0878C4.81112 16.3316 5.03379 16.4568 5.39233 16.4727C5.72493 16.4617 5.95271 16.3571 6.18137 16.1161C6.43622 15.7821 6.46803 15.4207 6.46545 15.0124C6.46582 14.9394 6.46582 14.9394 6.4662 14.865C6.46681 14.7054 6.46641 14.5457 6.46593 14.3861C6.46603 14.2745 6.46617 14.1629 6.46634 14.0513C6.46655 13.8178 6.46625 13.5843 6.46559 13.3509C6.46479 13.0523 6.46525 12.7538 6.46609 12.4552C6.4666 12.2249 6.46644 11.9945 6.46607 11.7642C6.46598 11.6542 6.46609 11.5441 6.46642 11.434C6.46678 11.28 6.46623 11.1259 6.46545 10.9718C6.46574 10.9268 6.46602 10.8818 6.46632 10.8353C6.46294 10.4728 6.40671 10.1052 6.14977 9.82901C5.89779 9.62093 5.61488 9.4924 5.28548 9.51614C4.9305 9.57219 4.75168 9.7079 4.51452 9.9786ZM19.7499 9.94701C19.5273 10.2564 19.5258 10.595 19.5267 10.9612C19.5265 11.0099 19.5262 11.0585 19.526 11.1086C19.5253 11.2687 19.5254 11.4289 19.5255 11.589C19.5253 11.7008 19.5251 11.8125 19.5249 11.9242C19.5245 12.1583 19.5245 12.3923 19.5248 12.6263C19.525 12.9256 19.5243 13.2249 19.5232 13.5242C19.5225 13.7549 19.5224 13.9856 19.5226 14.2164C19.5226 14.3267 19.5223 14.437 19.5218 14.5473C19.5213 14.7019 19.5216 14.8564 19.5221 15.0109C19.5218 15.0561 19.5214 15.1013 19.521 15.1479C19.5241 15.5478 19.5979 15.8974 19.88 16.1947C20.1363 16.4195 20.3847 16.4847 20.7238 16.4697C21.0637 16.422 21.2624 16.2467 21.4825 15.9938C21.6671 15.7135 21.6573 15.4265 21.6565 15.1032C21.6567 15.0526 21.657 15.002 21.6572 14.9499C21.6579 14.7829 21.6578 14.616 21.6577 14.4491C21.6579 14.3329 21.6581 14.2167 21.6583 14.1004C21.6587 13.8569 21.6587 13.6134 21.6584 13.3699C21.6581 13.0581 21.6589 12.7463 21.66 12.4344C21.6607 12.1944 21.6607 11.9544 21.6606 11.7145C21.6606 11.5995 21.6609 11.4845 21.6613 11.3696C21.6619 11.2087 21.6616 11.0479 21.6611 10.8871C21.6614 10.8398 21.6618 10.7924 21.6621 10.7436C21.6592 10.3467 21.5639 10.0862 21.2952 9.78956C21.0964 9.59583 20.8806 9.52752 20.6091 9.51449C20.2604 9.52024 19.9667 9.67598 19.7499 9.94701ZM2.28566 12.3333C2.04229 12.6042 1.98545 12.7608 1.98941 13.1269C2.01318 13.3449 2.08736 13.4897 2.23909 13.6467C2.60971 13.9249 2.86885 13.8805 3.36128 13.8805C3.36128 13.2942 3.36128 12.7078 3.36128 12.1037C2.76285 12.0698 2.76285 12.0698 2.28566 12.3333ZM10.4685 12.1037C10.4685 12.6901 10.4685 13.2764 10.4685 13.8805C12.1349 13.8805 13.8014 13.8805 15.5184 13.8805C15.5184 13.2942 15.5184 12.7078 15.5184 12.1037C13.8519 12.1037 12.1854 12.1037 10.4685 12.1037ZM22.6256 12.1037C22.6256 12.6901 22.6256 13.2764 22.6256 13.8805C23.2594 13.9124 23.2594 13.9124 23.7361 13.6292C23.961 13.3668 24.0074 13.1881 23.9978 12.846C23.9671 12.5921 23.8385 12.4731 23.6601 12.3024C23.3127 12.0523 23.0715 12.1037 22.6256 12.1037ZM10.6555 14.8624C10.8468 15.0569 10.8468 15.0569 11.0531 15.2188C11.0835 15.24 11.1138 15.2612 11.145 15.2831C11.1935 15.3164 11.1935 15.3164 11.2429 15.3505C11.2941 15.3861 11.2941 15.3861 11.3463 15.4225C11.4198 15.4738 11.4934 15.525 11.5671 15.576C11.7311 15.6899 11.8946 15.8044 12.0581 15.919C12.1381 15.9751 12.2182 16.0311 12.2984 16.0871C12.3355 16.113 12.3726 16.1389 12.4108 16.1656C12.4463 16.1902 12.4818 16.2147 12.5184 16.2399C12.5841 16.2868 12.6485 16.3355 12.7112 16.3863C12.8034 16.4628 12.8034 16.4628 12.9467 16.5457C13.1113 16.4984 13.2411 16.4182 13.3799 16.3196C13.4173 16.2932 13.4547 16.2669 13.4932 16.2397C13.5327 16.2115 13.5722 16.1832 13.613 16.1541C13.6747 16.1105 13.6747 16.1105 13.7377 16.0659C13.8225 16.0059 13.9073 15.9457 13.992 15.8855C14.1416 15.7791 14.2916 15.6733 14.4416 15.5676C14.5396 15.4985 14.6375 15.4292 14.7353 15.36C14.9237 15.2269 15.1134 15.0958 15.3037 14.9656C15.3283 14.947 15.3528 14.9284 15.3781 14.9092C15.3781 14.8938 15.3781 14.8783 15.3781 14.8624C13.8196 14.8624 12.2612 14.8624 10.6555 14.8624Z" stroke="#4F4F56" stroke-width="0.4" mask="url(#path-1-outside-1_1805_8316)"/>
</svg>
