<svg width="21" height="26" viewBox="0 0 21 26" fill="none" xmlns="http://www.w3.org/2000/svg">
<path d="M10.2144 5.57148C9.29611 5.57148 8.39845 5.84379 7.63493 6.35395C6.87141 6.86412 6.27631 7.58925 5.9249 8.43763C5.57349 9.28601 5.48155 10.2195 5.6607 11.1202C5.83984 12.0208 6.28204 12.8481 6.93136 13.4974C7.58068 14.1467 8.40797 14.5889 9.3086 14.7681C10.2092 14.9472 11.1428 14.8553 11.9912 14.5039C12.8395 14.1525 13.5647 13.5574 14.0748 12.7938C14.585 12.0303 14.8573 11.1327 14.8573 10.2144C14.8573 8.98301 14.3681 7.80207 13.4974 6.93136C12.6267 6.06065 11.4458 5.57148 10.2144 5.57148ZM10.2144 13.0001C9.66342 13.0001 9.12483 12.8367 8.66671 12.5306C8.2086 12.2245 7.85154 11.7895 7.6407 11.2804C7.42985 10.7714 7.37468 10.2113 7.48217 9.67092C7.58966 9.13054 7.85498 8.63416 8.24457 8.24457C8.63416 7.85498 9.13054 7.58966 9.67092 7.48217C10.2113 7.37468 10.7714 7.42985 11.2804 7.6407C11.7895 7.85154 12.2245 8.2086 12.5306 8.66671C12.8367 9.12483 13.0001 9.66342 13.0001 10.2144C13.0001 10.9532 12.7066 11.6618 12.1842 12.1842C11.6618 12.7066 10.9532 13.0001 10.2144 13.0001ZM10.2144 0C7.50631 0.00307213 4.91002 1.08021 2.99512 2.99512C1.08021 4.91002 0.00307213 7.50631 0 10.2144C0 13.8591 1.68421 17.722 4.87505 21.3864C6.3088 23.0422 7.92248 24.5333 9.68626 25.832C9.84239 25.9413 10.0284 26 10.219 26C10.4097 26 10.5957 25.9413 10.7518 25.832C12.5123 24.5327 14.1229 23.0417 15.5537 21.3864C18.7399 17.722 20.4288 13.8591 20.4288 10.2144C20.4257 7.50631 19.3486 4.91002 17.4337 2.99512C15.5188 1.08021 12.9225 0.00307213 10.2144 0ZM10.2144 23.911C8.29571 22.402 1.85716 16.8595 1.85716 10.2144C1.85716 7.99791 2.73765 5.87222 4.30494 4.30494C5.87222 2.73765 7.99791 1.85716 10.2144 1.85716C12.4309 1.85716 14.5566 2.73765 16.1238 4.30494C17.6911 5.87222 18.5716 7.99791 18.5716 10.2144C18.5716 16.8572 12.1331 22.402 10.2144 23.911Z" fill="#193B61"/>
</svg>
