<svg width="35" height="39" viewBox="0 0 35 39" fill="none" xmlns="http://www.w3.org/2000/svg">
<path d="M1.20009 37.1396V33.6683L16.7782 20.2202L23.4151 25.8393L2.39649 37.7936L2.39643 37.7937C2.2754 37.8625 2.13693 37.8995 1.99511 37.9C1.85329 37.9004 1.71453 37.8644 1.593 37.7963L1.34866 38.2325L1.59299 37.7963C1.47153 37.7283 1.37221 37.6311 1.30382 37.5158L0.873829 37.771L1.30382 37.5158C1.23548 37.4007 1.20005 37.271 1.20009 37.1398V37.1396ZM16.0056 19.5661L1.20009 32.3473V7.03118L16.0056 19.5661ZM24.3409 25.3128L17.5445 19.5587L24.344 13.689L33.4113 18.846L33.4115 18.8461C33.5317 18.9144 33.6299 19.0114 33.6975 19.1261C33.7651 19.2407 33.8001 19.3696 33.8001 19.5C33.8001 19.6304 33.7651 19.7593 33.6975 19.8739C33.6299 19.9886 33.5317 20.0856 33.4115 20.1539L33.4113 20.154L24.3409 25.3128ZM23.4215 13.1643L16.7719 18.9046L1.20009 5.72091V1.86032L1.20009 1.86017C1.20005 1.72894 1.23548 1.59926 1.30382 1.48411C1.37221 1.36886 1.47153 1.27168 1.59299 1.20365C1.71453 1.13558 1.85329 1.09951 1.99511 1.09998C2.13693 1.10045 2.2754 1.13743 2.39643 1.20629L2.39649 1.20633L23.4215 13.1643Z" stroke="#193B61"/>
</svg>
