<svg width="21" height="25" viewBox="0 0 21 25" fill="none" xmlns="http://www.w3.org/2000/svg">
<path fill-rule="evenodd" clip-rule="evenodd" d="M0.702893 0.892765L0.79587 0.891983C0.898256 0.89135 1.00059 0.892036 1.10297 0.892723L1.10478 0.892735L1.32831 0.89195C1.53321 0.891259 1.73809 0.891737 1.94299 0.892406C2.13919 0.892867 2.33539 0.892479 2.53158 0.892091L2.60579 0.891946C3.03873 0.891293 3.47167 0.891648 3.90461 0.892351C4.40885 0.89314 4.91308 0.89299 5.41732 0.892815C6.31725 0.89254 7.21717 0.893203 8.11709 0.894356C8.99007 0.895474 9.86305 0.895807 10.736 0.895315C11.6865 0.894781 12.6369 0.894692 13.5874 0.895367L13.8917 0.89558L14.0429 0.895688C14.3942 0.895909 14.7455 0.895823 15.0968 0.895624C15.5253 0.895393 15.9538 0.895675 16.3823 0.896601C16.6008 0.897062 16.8194 0.897303 17.0379 0.896934C17.2382 0.896603 17.4384 0.896925 17.6387 0.897757C17.711 0.897946 17.7832 0.897901 17.8555 0.897593C18.531 0.894958 19.1184 0.991134 19.6313 1.46001C20.125 1.98021 20.189 2.7081 20.1865 3.38981L20.1866 3.52535C20.1866 3.67372 20.1863 3.82209 20.186 3.97046L20.186 3.97298L20.1859 4.29598C20.1858 4.5898 20.1854 4.88362 20.1849 5.17744L20.1843 5.73712L20.1843 5.83185L20.1841 6.02275C20.1836 6.62302 20.1829 7.22328 20.182 7.82355C20.1813 8.32855 20.1807 8.83356 20.1802 9.33857C20.1789 10.7952 20.1765 12.2517 20.1724 13.7083L20.1713 14.1061L20.171 14.2057C20.1695 14.7524 20.1688 15.299 20.1682 15.8457C20.1676 16.419 20.1664 16.9923 20.1644 17.5657C20.1634 17.8829 20.1626 18.2002 20.1627 18.5175C20.1627 18.8109 20.1619 19.1042 20.1604 19.3976C20.16 19.5047 20.1599 19.6119 20.1602 19.719C20.1605 19.8649 20.1596 20.0108 20.1585 20.1566L20.1596 20.2849C20.1561 20.54 20.1226 20.6929 19.9471 20.8915C19.7658 21.0238 19.639 21.0494 19.4161 21.0494L19.2334 21.0505L19.0329 21.0496L18.8197 21.0502C18.6243 21.0508 18.4289 21.0505 18.2335 21.05C18.0442 21.0497 17.8549 21.0501 17.6656 21.0505L17.6014 21.0506C17.2363 21.0512 16.8711 21.0513 16.5059 21.0511C15.9774 21.0507 15.4489 21.0513 14.9204 21.0522C14.0623 21.0535 13.2042 21.0543 12.3461 21.0547L12.1904 21.0548L11.0968 21.0552L9.84874 21.0558L9.69348 21.0558C8.83889 21.0562 7.98431 21.0572 7.12972 21.0585C6.60265 21.0593 6.07558 21.0597 5.54851 21.0593C5.18722 21.0591 4.82593 21.0594 4.46463 21.0601C4.25623 21.0605 4.04783 21.0606 3.83943 21.0602C3.64848 21.0597 3.45754 21.06 3.26659 21.0607C3.19768 21.0608 3.12877 21.0607 3.05986 21.0604C2.50022 21.0578 2.02898 21.1002 1.60911 21.4996C1.33484 21.8461 1.28337 22.1902 1.32842 22.6224C1.41568 22.9323 1.5803 23.2211 1.86019 23.3915C2.15441 23.5447 2.39622 23.6106 2.72902 23.6107L2.89878 23.6112L3.08478 23.6109L3.28276 23.6112C3.42624 23.6114 3.56971 23.6115 3.71319 23.6115C3.94663 23.6114 4.18008 23.6116 4.41352 23.6119C4.75243 23.6123 5.09134 23.6125 5.43025 23.6127C5.96583 23.6129 6.50141 23.6137 7.03699 23.6146L7.58665 23.6155L7.7254 23.6157L9.28888 23.618L9.43325 23.6182C10.2056 23.6192 10.978 23.6197 11.7505 23.6201C12.5433 23.6205 13.3361 23.6216 14.129 23.6233C14.6181 23.6243 15.1073 23.6248 15.5964 23.6245C15.9315 23.6243 16.2666 23.6248 16.6017 23.6259C16.7951 23.6265 16.9885 23.6268 17.1819 23.6263C17.3589 23.6258 17.5359 23.6262 17.713 23.6272C17.8074 23.6276 17.9018 23.627 17.9962 23.6264C18.5089 23.631 18.5089 23.631 18.7308 23.8387C18.8325 23.9828 18.8746 24.1359 18.8668 24.3122C18.8216 24.5419 18.7266 24.6702 18.5437 24.8211C18.4343 24.8758 18.348 24.8752 18.2341 24.8743L18.1845 24.8741L18.0121 24.8748L17.8211 24.8747L17.6194 24.8753C17.434 24.8757 17.2486 24.8759 17.0633 24.876C16.8898 24.8762 16.7163 24.8765 16.5428 24.8769L16.4642 24.8771C15.9814 24.878 15.4987 24.8785 15.016 24.8789L14.3341 24.8796C13.5784 24.8804 12.8228 24.8811 12.0671 24.8814L11.4785 24.8817L11.3307 24.8817C10.5413 24.8821 9.75181 24.8833 8.96235 24.8848C8.15185 24.8864 7.34136 24.8872 6.53086 24.8874C6.07579 24.8875 5.62073 24.8879 5.16566 24.8891C4.77796 24.8901 4.39027 24.8905 4.00257 24.89C3.80486 24.8898 3.60716 24.8899 3.40946 24.8908C3.22816 24.8916 3.04688 24.8916 2.86558 24.8908C2.80029 24.8907 2.73499 24.8909 2.66969 24.8915C1.90444 24.8976 1.2868 24.6527 0.725026 24.1316C0.0471685 23.4021 0.00418573 22.5082 0.00637071 21.5669L0.00582839 21.3061C0.00534931 21.0686 0.00544908 20.8312 0.00564971 20.5937C0.00575174 20.3675 0.00543564 20.1413 0.00511955 19.915L0.00499305 19.8238C0.00439765 19.3217 0.00431272 18.8195 0.00442235 18.3174C0.00450584 17.9094 0.00442376 17.5014 0.00422472 17.0934L0.00414035 16.9172L0.00396993 16.563C0.00360588 15.7708 0.00342216 14.9786 0.00361052 14.1863L0.0036327 14.0926L0.00375025 13.6221L0.00377452 13.5277L0.00382342 13.3388C0.00407426 12.3579 0.00370226 11.377 0.00283947 10.3962C0.00187057 9.29335 0.0013699 8.19055 0.00155652 7.08775C0.00164606 6.50408 0.00152869 5.92041 0.000868178 5.33675C0.000311886 4.84017 0.000243948 4.34359 0.000811563 3.84701C0.0010877 3.59362 0.00113666 3.34024 0.000577566 3.08685C7.18806e-05 2.85498 0.000212018 2.62312 0.000870498 2.39124C0.000994952 2.3073 0.000881643 2.22335 0.000508593 2.1394C3.70225e-05 2.02539 0.00042878 1.91141 0.00103615 1.7974L0 1.69842C0.00313613 1.41482 0.0689318 1.19854 0.265251 0.99074C0.42246 0.898852 0.521268 0.892781 0.702893 0.892765ZM1.28164 2.13248V20.143L1.93657 19.9091C2.14133 19.875 2.30877 19.8563 2.51261 19.8558L2.69059 19.8551L2.88503 19.8549L3.09242 19.8542C3.2822 19.8536 3.47198 19.8532 3.66176 19.8529C3.84417 19.8526 4.02658 19.8521 4.20899 19.8515L4.27592 19.8513C4.63056 19.8503 4.98519 19.8495 5.33983 19.8487C5.85257 19.8477 6.36531 19.8463 6.87806 19.845C7.70995 19.8427 8.54184 19.8407 9.37373 19.8388C10.1818 19.837 10.9899 19.835 11.7981 19.833L11.949 19.8326L12.6987 19.8307C14.7717 19.8253 16.8448 19.8203 18.9179 19.8155C18.9211 17.6391 18.9236 15.4627 18.9251 13.2863L18.9256 12.5158L18.9258 12.3608C18.9264 11.5325 18.9275 10.7041 18.9288 9.8757C18.9301 9.02599 18.9308 8.17627 18.9311 7.32655C18.9313 6.80205 18.9319 6.27755 18.9331 5.75304C18.9338 5.39358 18.934 5.03413 18.9339 4.67467C18.9338 4.46714 18.9339 4.25963 18.9347 4.0521C18.9353 3.86216 18.9354 3.67223 18.9349 3.48229C18.9348 3.41354 18.935 3.34478 18.9355 3.27602C18.936 3.18261 18.9356 3.08919 18.9352 2.99578L18.9354 2.83849C18.9086 2.6164 18.829 2.46317 18.6694 2.3079C18.4416 2.15956 18.2323 2.12078 17.9633 2.12096L17.7823 2.1204L17.5846 2.12123L17.3742 2.12098C17.1813 2.12077 16.9884 2.12115 16.7955 2.12162C16.6081 2.12198 16.4207 2.12191 16.2332 2.12185L16.1621 2.12182C15.7522 2.12177 15.3424 2.1222 14.9325 2.1228C14.4584 2.12348 13.9843 2.12355 13.5102 2.12363C12.3952 2.12406 11.2802 2.12515 10.1652 2.12623L10.1645 2.12623L9.75478 2.12663L1.28164 2.13248ZM12.2546 5.74043C12.3732 5.83949 12.4702 5.93162 12.5678 6.05218C12.6283 6.11166 12.6594 6.14219 12.6966 6.15578C12.7359 6.17012 12.782 6.16561 12.8768 6.15634C12.9464 6.14542 13.0158 6.13341 13.085 6.12052C13.9315 5.9972 14.751 6.10341 15.4562 6.62341C16.1272 7.1596 16.6058 7.86381 16.7192 8.72854C16.7909 9.55123 16.5747 10.3308 16.0702 10.9886C15.7019 11.4236 15.2396 11.8247 14.6609 11.9096L14.6622 12.0747C14.666 12.5882 14.6688 13.1016 14.6706 13.6151C14.6716 13.8791 14.6729 14.1431 14.675 14.4071C14.6771 14.6618 14.6782 14.9166 14.6787 15.1714C14.679 15.2686 14.6797 15.3658 14.6807 15.4629C14.682 15.5991 14.6822 15.7353 14.6821 15.8715L14.6842 15.993C14.6824 16.2452 14.6404 16.3869 14.4738 16.5877C14.2553 16.7716 13.9794 16.8853 13.7164 16.9938L13.6873 17.0058L13.5706 17.0541C11.3821 17.9422 8.95053 17.9273 6.75498 17.0555C6.61266 16.9949 6.47284 16.9306 6.33395 16.8625L6.24314 16.8182C6.00913 16.6971 5.81121 16.5632 5.7258 16.307C5.72152 16.1682 5.71991 16.0305 5.72049 15.8917L5.72047 15.763C5.72051 15.6226 5.72087 15.4821 5.72124 15.3416L5.72144 15.0496C5.72162 14.7932 5.72207 14.5369 5.72259 14.2806C5.72303 14.0392 5.72325 13.7979 5.72347 13.5565L5.72347 13.555L5.72352 13.496C5.72402 12.9828 5.72482 12.4696 5.7258 11.9564L5.6287 11.928L5.5012 11.8903L5.37486 11.8532C4.76167 11.6585 4.21649 11.1396 3.91251 10.5791C3.51783 9.76361 3.41052 9.00323 3.66746 8.12039C3.79231 7.77903 3.96645 7.47649 4.18204 7.18478L4.24417 7.09907C4.69867 6.52051 5.42283 6.18715 6.13751 6.0805C6.54424 6.03346 6.96541 6.07153 7.36313 6.16145C7.41136 6.16997 7.4352 6.17419 7.45885 6.17333C7.48196 6.1725 7.5049 6.16682 7.55024 6.15561L7.55025 6.1556C7.66445 6.06437 7.75682 5.96275 7.85432 5.85391C8.21251 5.48844 8.70697 5.2798 9.18757 5.12643L9.29685 5.09153C10.312 4.83328 11.4395 5.10226 12.2546 5.74043ZM8.46174 7.03219C8.14206 7.43502 7.96229 7.85764 7.90823 8.36727C7.8703 8.69464 7.85865 8.79516 7.80962 8.87173C7.7879 8.90565 7.75884 8.93488 7.71691 8.97705L7.7169 8.97706C7.48544 9.0867 7.2874 9.09745 7.03566 9.056C6.88772 8.97448 6.8278 8.91104 6.74036 8.76947C6.64876 8.38642 6.72841 8.02995 6.81784 7.65277L6.81784 7.65275C6.83583 7.5825 6.84475 7.54765 6.84854 7.51226C6.85226 7.47743 6.85102 7.44206 6.84854 7.3719C6.45976 7.24749 6.09154 7.36151 5.7258 7.51224C5.56889 7.60644 5.43705 7.71361 5.30478 7.83971L5.22492 7.9139C4.90765 8.24322 4.76811 8.65808 4.76388 9.10863C4.77397 9.64422 4.98023 10.0263 5.34279 10.4084C5.68723 10.7355 6.12473 10.8979 6.60038 10.8907C6.92978 10.8594 7.22433 10.7461 7.51443 10.5934C7.71596 10.4948 7.83883 10.493 8.05022 10.5647C8.24567 10.6679 8.32261 10.7181 8.3923 10.9272C8.4162 11.2189 8.3971 11.3465 8.20518 11.5822C8.09385 11.6511 7.9963 11.7036 7.87771 11.7547L7.79311 11.7946C7.55863 11.9001 7.33997 11.9531 7.09406 12.0127C7.04463 12.0247 6.99409 12.037 6.9421 12.05V15.7924L6.94215 15.7924C7.22622 15.9155 7.36736 15.9767 7.51119 16.0307C7.6532 16.084 7.79785 16.1302 8.0853 16.2222L8.21659 16.2572C9.84375 16.6716 11.5079 16.5555 13.0624 15.9275L13.1605 15.8881L13.3978 15.7924L13.3982 15.7136C13.4009 15.0798 13.4045 14.4461 13.4089 13.8124C13.4109 13.506 13.4128 13.1995 13.414 12.8931C13.4152 12.5973 13.4171 12.3016 13.4195 12.0059C13.4203 11.893 13.4208 11.7802 13.4211 11.6673C13.4216 11.5093 13.4229 11.3513 13.4244 11.1933L13.4242 11.0518C13.4275 10.8039 13.4448 10.6264 13.5849 10.4126C13.7567 10.2611 13.9187 10.2507 14.1392 10.2588C14.28 10.2777 14.3658 10.321 14.4738 10.4126L14.4738 10.4127C14.5086 10.4707 14.5237 10.4959 14.5361 10.5222C14.5455 10.5423 14.5534 10.5631 14.5673 10.5997L14.5673 10.5998C14.9048 10.4883 15.1255 10.2012 15.2866 9.89221C15.5095 9.38927 15.5234 8.90918 15.331 8.39285C15.0903 7.87942 14.6688 7.56454 14.1463 7.3719C13.9248 7.30707 13.6464 7.27637 13.4331 7.37245L13.351 7.41868L13.3817 7.50365C13.6484 8.37137 13.5352 9.2968 13.1291 10.0946C12.9833 10.3675 12.8151 10.6078 12.6026 10.8337L12.5106 10.9314C12.3027 11.1328 12.1029 11.2526 11.8073 11.2547C11.6404 11.2198 11.5176 11.1496 11.3921 11.0325C11.2898 10.8278 11.2764 10.6627 11.3336 10.4419C11.4144 10.2748 11.5435 10.154 11.676 10.03C11.6997 10.0079 11.7235 9.98558 11.7472 9.96292C12.1421 9.5504 12.3219 9.01213 12.3219 8.44785C12.2709 7.82556 12.022 7.28082 11.5675 6.84854C11.121 6.47255 10.5868 6.26693 10.0018 6.28443C9.42114 6.34382 8.85009 6.58679 8.46174 7.03219ZM3.37298 21.6621L3.16561 21.663C3.11924 21.6627 3.07225 21.6614 3.02496 21.6602C2.81261 21.6546 2.59404 21.6488 2.3977 21.7264C2.24313 21.8256 2.14477 21.9382 2.07692 22.1078C2.04389 22.328 2.05572 22.4848 2.15294 22.6867C2.30702 22.857 2.45691 22.939 2.68621 22.9673L2.83896 22.9672C2.92969 22.9677 3.02043 22.9681 3.11116 22.9676C3.17793 22.9672 3.2447 22.9671 3.31147 22.9672C3.49595 22.9677 3.68042 22.9678 3.8649 22.9672C4.06646 22.9665 4.26801 22.9665 4.46956 22.9667C4.86449 22.9671 5.25942 22.9668 5.65435 22.9661C6.11819 22.9653 6.58203 22.965 7.04588 22.9649C7.8717 22.9649 8.69753 22.9643 9.52335 22.9632C10.3281 22.9621 11.1329 22.9613 11.9377 22.9611L12.0881 22.9611L12.3884 22.961L12.5381 22.961L12.6874 22.9609C13.4571 22.9608 14.2268 22.9603 14.9964 22.9597L15.8307 22.9592C16.2763 22.959 16.7219 22.9587 17.1674 22.9581C17.3711 22.9578 17.5748 22.9574 17.7785 22.9573C17.9675 22.9573 18.1565 22.9572 18.3455 22.9568L18.5514 22.9564L18.7459 22.9565L18.922 22.956C19.1564 22.9557 19.2852 22.9404 19.4822 22.8036C19.6372 22.6699 19.6811 22.5453 19.7132 22.3417C19.7014 22.1416 19.6658 22.0184 19.5261 21.8739C19.4446 21.7974 19.3921 21.7481 19.3305 21.7164C19.2185 21.6589 19.0766 21.6598 18.6768 21.6623C18.6097 21.6628 18.5427 21.6629 18.4756 21.6627C18.2904 21.6617 18.1051 21.6614 17.9199 21.6619C17.7175 21.6626 17.5151 21.6624 17.3127 21.6619C16.916 21.6609 16.5194 21.6607 16.1227 21.6613C15.7972 21.6617 15.4717 21.662 15.1462 21.6618L15.0063 21.6617L14.7248 21.6615C13.8446 21.661 12.9645 21.6614 12.0844 21.6624C11.3263 21.6632 10.5682 21.6634 9.81006 21.6625C8.92673 21.6615 8.04341 21.6609 7.16008 21.6614L6.87754 21.6616L6.73705 21.6617C6.41119 21.6619 6.08532 21.6619 5.75945 21.6614C5.35846 21.6609 4.95747 21.6607 4.55647 21.6616L4.48683 21.6617C4.30532 21.6622 4.1238 21.6627 3.94229 21.6623C3.75251 21.6617 3.56275 21.6613 3.37298 21.6621Z" fill="#4F4F56"/>
</svg>
