<svg width="20" height="19" viewBox="0 0 20 19" fill="none" xmlns="http://www.w3.org/2000/svg">
<path fill-rule="evenodd" clip-rule="evenodd" d="M12.121 0.60844C12.3461 0.797898 12.4266 1.02907 12.4962 1.30435L12.5249 1.41228C12.5558 1.52866 12.5859 1.64522 12.616 1.7618L12.6168 1.76459L12.6827 2.01396C12.7284 2.18669 12.7738 2.35949 12.819 2.53235C12.8826 2.77502 12.9473 3.01737 13.0125 3.2596L13.0434 3.3746L13.1051 3.60361C13.1558 3.79216 13.2063 3.98078 13.2568 4.1694L13.2568 4.16954L13.2568 4.16968L13.2569 4.16982L13.2569 4.16996L13.2569 4.1701L13.2599 4.18099L13.3222 4.41383L13.3536 4.53129L13.6154 5.50851L13.6798 5.74884C13.9287 6.67795 14.1785 7.60682 14.4291 8.53549C14.2736 8.58253 14.1745 8.55387 14.0229 8.51005L14.0025 8.50416C13.7593 8.43693 13.5209 8.39923 13.2699 8.37597L13.1687 8.36597C13.0876 8.35799 13.0063 8.3503 12.9251 8.34267L12.8918 8.2179L12.5676 7.00374L12.3922 6.34681C12.1437 5.41589 11.8946 4.48513 11.6419 3.55534L11.5435 3.19271L11.4797 2.95764L11.4484 2.84232C11.3873 2.6173 11.3259 2.39235 11.2644 2.16745C11.2263 2.02825 11.1885 1.88898 11.1508 1.74969C11.1333 1.68547 11.1158 1.62128 11.0981 1.55713C11.0741 1.46987 11.0504 1.38252 11.0268 1.29514L10.9865 1.14753C10.9594 1.0204 10.9467 0.913607 10.9584 0.784235L10.9584 0.784224C10.9965 0.750092 11.0165 0.732175 11.0383 0.716778C11.0624 0.699767 11.0887 0.685831 11.1439 0.656502L11.144 0.656494L11.2484 0.5991C11.5321 0.461925 11.8399 0.469143 12.121 0.60844ZM10.3799 1.20843L10.4079 1.31306L10.6812 2.33542L10.83 2.89219C11.046 3.70037 11.2623 4.50848 11.4797 5.31628L11.5677 5.64345L11.6252 5.85708L11.6535 5.96232L11.8185 6.5748L11.9216 6.95806L11.9689 7.13312C12.0774 7.53449 12.1764 7.93744 12.2695 8.34268L12.1936 8.35892C11.2071 8.57051 10.3078 8.86713 9.53153 9.53814L9.47276 9.58748C8.6677 10.2654 8.1911 11.1701 7.8733 12.1605L7.87295 12.1604C7.09633 12.1368 6.847 12.1292 6.59775 12.1196C6.48015 12.115 6.36257 12.11 6.18964 12.1027L6.18915 12.1026L6.18874 12.1026L6.18856 12.1026L6.08407 12.0985L5.98806 12.0942L5.90586 12.0906C5.82588 12.083 5.75283 12.065 5.67518 12.0448C5.41285 11.1038 5.1602 10.1604 4.90768 9.21676L4.74605 8.61337L4.5544 7.89737L4.49124 7.66104L4.45977 7.54327C4.39437 7.29873 4.32863 7.0543 4.26264 6.80993C4.21896 6.64808 4.17543 6.48619 4.13191 6.32429L4.06978 6.0944C4.04119 5.98897 4.01283 5.88348 3.98453 5.77798L3.95878 5.68375C3.92278 5.54872 3.90127 5.43693 3.90127 5.29616C3.92492 5.27331 3.93781 5.26086 3.95185 5.24989C3.96865 5.23676 3.9871 5.22575 4.02764 5.20157L4.02765 5.20156L4.11271 5.14948L4.20736 5.0937L4.41057 4.96958L4.52063 4.90284C4.69933 4.79335 4.87552 4.67998 5.05174 4.56658L5.05176 4.56657L5.05178 4.56656L5.0518 4.56654L5.05182 4.56653L5.05183 4.56652L5.05185 4.56651L5.05187 4.5665L5.05189 4.56649L5.05191 4.56647L5.10155 4.53453L5.34845 4.37636L5.47331 4.29634C6.01176 3.95124 6.55044 3.60653 7.09016 3.26343C7.35796 3.09312 7.62533 2.92214 7.89258 2.75097C8.41311 2.41761 8.93461 2.08579 9.45636 1.75435L9.5727 1.6804L9.79262 1.54072L9.89306 1.47687L9.98676 1.41733C10.0609 1.36948 10.1337 1.32025 10.2064 1.2702C10.2633 1.23372 10.2866 1.21879 10.3121 1.21267C10.3297 1.20843 10.3484 1.20843 10.3799 1.20843ZM3.28425 5.52754C3.31895 5.63357 3.34895 5.73817 3.37696 5.84601L3.40424 5.94798C3.43404 6.05965 3.46341 6.17143 3.49278 6.28321L3.49284 6.28344L3.49287 6.28356L3.49379 6.28706L3.55756 6.52671C3.61483 6.74189 3.67171 6.95717 3.72853 7.17247C3.78425 7.38337 3.84027 7.59419 3.8963 7.80501L3.89636 7.80526L3.89655 7.80597L3.90531 7.83891C3.97667 8.10754 4.048 8.37617 4.11917 8.64484C4.26433 9.19277 4.41033 9.74047 4.55745 10.2879L4.60993 10.4833L4.80443 11.2066L4.91442 11.6161L4.97305 11.8337L5.00743 11.9622L5.03736 12.0734C5.04853 12.1201 5.0537 12.1418 5.0561 12.1637C5.05817 12.1827 5.05817 12.2018 5.05817 12.2376C4.53003 12.3973 3.99909 12.5465 3.46602 12.6888C3.4016 12.706 3.33721 12.7233 3.27286 12.7408C2.59106 12.9256 2.35033 12.9909 2.13344 12.9445C2.01506 12.9192 1.90379 12.8607 1.73178 12.7703L1.73177 12.7702C1.36487 12.5247 1.23894 12.1197 1.13464 11.7113L1.09656 11.5684C1.0625 11.4406 1.02917 11.3126 0.995993 11.1845C0.963534 11.0597 0.93055 10.9349 0.897566 10.8102L0.897564 10.8102L0.897551 10.8101L0.889937 10.7813C0.845756 10.6141 0.801643 10.4468 0.757825 10.2795C0.662622 9.91616 0.565012 9.55357 0.465488 9.19141C0.423584 9.03873 0.381985 8.88596 0.340387 8.7332L0.340353 8.73307L0.336056 8.71729C0.301847 8.59176 0.267453 8.46629 0.232628 8.34093C0.193967 8.20131 0.156046 8.06151 0.118281 7.92164L0.0836893 7.79887C-0.0277308 7.38045 -0.0514905 6.99606 0.160611 6.60732C0.392712 6.2315 0.798404 6.12733 1.19728 6.02492L1.19732 6.02491L1.19736 6.0249L1.19739 6.02489L1.19746 6.02487L1.19751 6.02486L1.19755 6.02485L1.19759 6.02484L1.19762 6.02483L1.19765 6.02482C1.23288 6.01577 1.26805 6.00674 1.30305 5.99754L1.48757 5.94778C1.61313 5.91391 1.73878 5.88035 1.86448 5.84701C2.01402 5.80728 2.16331 5.76669 2.31248 5.72561C2.41983 5.69605 2.52724 5.66673 2.63467 5.63746L2.7861 5.59588C2.85577 5.5767 2.92555 5.55791 2.99533 5.53914L3.1142 5.5068C3.16262 5.49752 3.18581 5.49307 3.20782 5.49639C3.22806 5.49945 3.24731 5.50907 3.28425 5.52754L3.28425 5.52754ZM17.2057 13.1631C17.154 12.0925 16.6993 11.0545 15.9596 10.2805C14.996 9.37008 13.808 8.90441 12.4792 8.96933C11.2246 9.07465 10.1644 9.63455 9.34941 10.5842C8.5927 11.5008 8.27268 12.6864 8.38228 13.8622C8.52841 15.0933 9.12303 16.0988 10.0677 16.8807C11.0084 17.6194 12.196 17.912 13.3793 17.7737L13.5036 17.7522C14.07 17.6555 14.5877 17.4724 15.0785 17.1728L15.2004 17.0966C15.5465 16.889 15.824 16.6122 16.099 16.3196C16.8478 15.5023 17.2478 14.3701 17.2118 13.2637L17.2057 13.1631ZM10.3605 10.8079L10.4571 10.7336C11.0905 10.1854 11.8317 9.90174 12.6653 9.83686C13.5539 9.81906 14.4693 10.1397 15.1344 10.7356C15.879 11.4559 16.3122 12.3633 16.3307 13.4041C16.3037 14.3559 15.9467 15.2516 15.2574 15.9194C14.4841 16.6376 13.5807 16.9328 12.5402 16.913C11.7119 16.8826 10.8271 16.4733 10.2602 15.8681L10.1871 15.7854C10.1277 15.7194 10.0691 15.6527 10.0112 15.5854C9.41311 14.8391 9.18403 13.9115 9.26159 12.9703C9.36498 12.1748 9.73338 11.329 10.3605 10.8079ZM12.7542 11.4663C12.8917 11.4663 13.003 11.5843 13.003 11.7299C13.003 11.8756 12.8917 11.9935 12.7542 11.9935C12.6168 11.9935 12.5055 11.8756 12.5055 11.7299C12.5055 11.5843 12.6168 11.4663 12.7542 11.4663ZM11.9286 11.9182C11.9286 11.7726 11.8173 11.6546 11.6798 11.6546C11.5428 11.6546 11.4314 11.7726 11.4314 11.9182C11.4314 12.0639 11.5424 12.1818 11.6798 12.1818C11.692 12.1818 11.7039 12.1809 11.7156 12.1791L11.5942 14.2853L10.7751 12.611L10.7748 12.6096C10.8787 12.5779 10.9546 12.4766 10.9546 12.3563C10.9546 12.2106 10.8432 12.0927 10.7058 12.0927C10.5684 12.0927 10.4571 12.2106 10.4571 12.3563C10.4571 12.5019 10.5684 12.6199 10.7058 12.6199C10.7296 12.6199 10.7527 12.6163 10.7745 12.6097L10.7751 12.611L11.302 15.2786C11.6845 15.0822 12.0727 14.9877 12.6876 14.9877C13.246 14.9877 13.7415 15.1216 14.1418 15.3227L14.7305 12.5967C14.7616 12.6116 14.7962 12.6199 14.8326 12.6199C14.97 12.6199 15.0813 12.5019 15.0813 12.3563C15.0813 12.2106 14.97 12.0927 14.8326 12.0927C14.6951 12.0927 14.5838 12.2106 14.5838 12.3563C14.5838 12.4633 14.6439 12.5553 14.7303 12.5967L13.8643 14.3123L13.7894 12.1757C13.8066 12.1797 13.8245 12.1818 13.8428 12.1818C13.9799 12.1818 14.0913 12.0639 14.0913 11.9182C14.0913 11.7726 13.9802 11.6546 13.8428 11.6546C13.7054 11.6546 13.5941 11.7726 13.5941 11.9182C13.5941 12.0444 13.6778 12.1497 13.7893 12.1757L13.1591 14.2288L12.7364 11.9936L12.3449 14.2121L11.7157 12.1791C11.8361 12.1607 11.9286 12.051 11.9286 11.9182ZM5.86631 14.8728L5.32811 12.8546C5.23355 12.8546 5.19696 12.8546 5.16098 12.8593C5.13828 12.8623 5.11582 12.8672 5.07918 12.8751L4.97227 12.9042L4.85064 12.9369L4.72014 12.9727C4.58188 13.0101 4.44364 13.0476 4.30547 13.0853L4.01684 13.1638C3.73402 13.2405 3.45125 13.3173 3.16856 13.3945C3.16856 13.4585 3.16856 13.4871 3.17208 13.5152C3.17492 13.538 3.18006 13.5604 3.18934 13.601L3.21935 13.7114L3.25408 13.8403C3.28829 13.9658 3.32224 14.0915 3.35606 14.2171L3.37861 14.3009C3.46886 14.6355 3.55744 14.9706 3.64578 15.3057C3.70619 15.5349 3.76683 15.764 3.82753 15.9931L3.83551 16.0232L3.83551 16.0232L3.83552 16.0232L3.83553 16.0233L3.83554 16.0233L3.83554 16.0233L3.83555 16.0233C3.88499 16.2099 3.93444 16.3965 3.98359 16.5831C4.0356 16.7808 4.08769 16.9785 4.14014 17.1761L4.19968 17.4004C4.22747 17.5065 4.25527 17.6126 4.28349 17.7186L4.30939 17.8157C4.37121 18.0544 4.42787 18.247 4.61469 18.4198C4.83715 18.5271 5.06029 18.515 5.29663 18.4523C5.37683 18.428 5.45717 18.4041 5.53806 18.3822C5.60743 18.3638 5.67674 18.3451 5.74598 18.3262L5.85354 18.2969C6.12865 18.2247 6.32892 18.164 6.51635 17.9377C6.5546 17.8472 6.57953 17.7881 6.5895 17.7266C6.60816 17.6114 6.5743 17.4878 6.47699 17.1324C6.45709 17.0622 6.4372 16.9921 6.41779 16.9218L6.35261 16.6842C6.26027 16.3508 6.17084 16.0166 6.08194 15.6822C6.03095 15.4903 5.97983 15.2984 5.92866 15.1066L5.86631 14.8728ZM15.2775 5.02622C14.9242 4.66623 14.5113 4.46009 14.0049 4.44777C14.0049 4.58433 14.0239 4.69106 14.0587 4.82189L14.0828 4.90981C14.1091 5.00789 14.1354 5.10596 14.162 5.20396L14.2188 5.41411C14.2682 5.59768 14.3177 5.78121 14.3674 5.9647C14.4189 6.15487 14.4702 6.34508 14.5214 6.53532C14.6318 6.94502 14.7424 7.35465 14.8533 7.76422H14.9304C15.3246 7.48239 15.6125 7.08862 15.7017 6.60732C15.7585 6.0121 15.6497 5.50459 15.2775 5.02622ZM17.3929 6.84413L17.5355 6.88193C17.6345 6.90832 17.7335 6.93487 17.8325 6.96168C17.9589 6.9959 18.0855 7.02932 18.2121 7.06253C18.3223 7.09154 18.4323 7.12113 18.5423 7.15073L18.5763 7.15987L18.7135 7.1958L18.8415 7.23085L18.9536 7.26096C19.097 7.3173 19.2179 7.39247 19.2881 7.53285C19.3025 7.68509 19.3016 7.77697 19.2302 7.91366C19.1014 8.02315 18.9895 8.03683 18.8253 8.03417C18.6574 8.00573 18.4949 7.96106 18.3309 7.91547L18.1887 7.87723C18.0897 7.85051 17.9909 7.8236 17.8921 7.79629C17.7661 7.76146 17.6398 7.72735 17.5135 7.69348C17.3941 7.6614 17.2747 7.6289 17.1554 7.5964L17.1499 7.59491L17.0133 7.55801C16.6256 7.4506 16.5193 7.42114 16.4518 7.35313C16.4264 7.32745 16.4064 7.29626 16.379 7.25329L16.379 7.25326C16.3502 7.1127 16.358 7.01586 16.3958 6.87727C16.6167 6.61623 16.966 6.71925 17.2655 6.80757L17.2656 6.80759L17.2658 6.80765C17.3094 6.82051 17.352 6.83306 17.3929 6.84413ZM19.2881 4.79483C19.234 4.6866 19.1946 4.63615 19.0953 4.56345C18.8388 4.52555 18.5945 4.58221 18.3475 4.64769L18.2148 4.68457L17.9312 4.76154C17.7836 4.80248 17.6361 4.84331 17.4882 4.88313C17.391 4.90921 17.294 4.93551 17.1969 4.96206L17.0579 5.0003L17.0057 5.0142C16.8151 5.06486 16.6349 5.11274 16.4653 5.21975C16.3629 5.33235 16.3573 5.41583 16.3573 5.5661C16.4034 5.70203 16.4367 5.77368 16.5573 5.85292C16.6249 5.86643 16.6709 5.87564 16.7173 5.87794C16.8167 5.88285 16.9175 5.85607 17.2345 5.77195L17.3286 5.74627L17.5333 5.69128C17.6389 5.66256 17.7445 5.63386 17.8503 5.60551C18.0209 5.55983 18.1915 5.51363 18.3617 5.46615L18.5554 5.41185C18.6456 5.38735 18.7358 5.36282 18.8257 5.33715L18.9073 5.31363C18.9871 5.29121 19.0237 5.28093 19.0592 5.26776C19.0892 5.25662 19.1184 5.24341 19.1724 5.21904L19.1724 5.21903C19.2843 5.07551 19.3042 4.97558 19.2881 4.79483ZM17.707 2.17253C17.7648 2.21109 17.7938 2.23037 17.8179 2.25447C17.842 2.27857 17.8612 2.30748 17.8998 2.36532L17.8998 2.36534C17.9256 2.49651 17.9356 2.5511 17.8998 2.67384C17.8763 2.70735 17.8639 2.72504 17.8505 2.7419C17.8354 2.76075 17.8191 2.77857 17.7846 2.81629L17.7845 2.81636L17.7102 2.8977C17.5708 3.04453 17.429 3.1887 17.2856 3.33168L17.1888 3.42865L16.9876 3.6296C16.8846 3.73243 16.7818 3.83547 16.6789 3.93853L16.483 4.13428L16.3897 4.22788L16.3034 4.31376L16.2275 4.38957C16.1313 4.47831 16.0917 4.48608 15.9572 4.49356C15.8287 4.48691 15.7662 4.48174 15.6631 4.4092C15.5826 4.28844 15.5626 4.21262 15.5666 4.06819C15.5906 3.96534 15.6295 3.91962 15.7008 3.84219L15.7753 3.76097C15.9151 3.6145 16.0568 3.47015 16.2001 3.32716L16.297 3.2302L16.4982 3.02925C16.6012 2.92641 16.704 2.82338 16.8068 2.72032L17.0027 2.52456L17.0961 2.43096L17.1824 2.34508L17.2583 2.26928C17.3893 2.14838 17.5366 2.1445 17.707 2.17252L17.707 2.17253ZM6.69546 13.6492C6.52318 13.5376 6.37802 13.5346 6.17651 13.5487C6.17651 13.5845 6.17651 13.6105 6.17835 13.6364C6.1833 13.7059 6.20153 13.7745 6.2687 14.0272L6.30666 14.1682L6.34372 14.3095L6.37987 14.4443C6.38291 14.4557 6.38577 14.4666 6.38853 14.4771C6.4177 14.5884 6.43541 14.656 6.52358 14.7442C6.58847 14.7088 6.61366 14.6951 6.638 14.68C6.65343 14.6704 6.66853 14.6603 6.6932 14.6437C6.84366 14.5127 6.90098 14.3391 6.9285 14.1465C6.9006 13.9512 6.84512 13.7845 6.69546 13.6492Z" fill="#0C3B60"/>
</svg>
